%TF.GenerationSoftware,KiCad,Pcbnew,(6.0.9)*%
%TF.CreationDate,2024-05-18T22:59:34+02:00*%
%TF.ProjectId,Breadboard-byte-leds,42726561-6462-46f6-9172-642d62797465,rev?*%
%TF.SameCoordinates,Original*%
%TF.FileFunction,Legend,Bot*%
%TF.FilePolarity,Positive*%
%FSLAX46Y46*%
G04 Gerber Fmt 4.6, Leading zero omitted, Abs format (unit mm)*
G04 Created by KiCad (PCBNEW (6.0.9)) date 2024-05-18 22:59:34*
%MOMM*%
%LPD*%
G01*
G04 APERTURE LIST*
G04 Aperture macros list*
%AMRoundRect*
0 Rectangle with rounded corners*
0 $1 Rounding radius*
0 $2 $3 $4 $5 $6 $7 $8 $9 X,Y pos of 4 corners*
0 Add a 4 corners polygon primitive as box body*
4,1,4,$2,$3,$4,$5,$6,$7,$8,$9,$2,$3,0*
0 Add four circle primitives for the rounded corners*
1,1,$1+$1,$2,$3*
1,1,$1+$1,$4,$5*
1,1,$1+$1,$6,$7*
1,1,$1+$1,$8,$9*
0 Add four rect primitives between the rounded corners*
20,1,$1+$1,$2,$3,$4,$5,0*
20,1,$1+$1,$4,$5,$6,$7,0*
20,1,$1+$1,$6,$7,$8,$9,0*
20,1,$1+$1,$8,$9,$2,$3,0*%
G04 Aperture macros list end*
%ADD10C,0.120000*%
%ADD11R,1.700000X1.700000*%
%ADD12O,1.700000X1.700000*%
%ADD13RoundRect,0.135000X-0.135000X-0.185000X0.135000X-0.185000X0.135000X0.185000X-0.135000X0.185000X0*%
%ADD14RoundRect,0.135000X0.135000X0.185000X-0.135000X0.185000X-0.135000X-0.185000X0.135000X-0.185000X0*%
%ADD15RoundRect,0.150000X0.150000X-0.587500X0.150000X0.587500X-0.150000X0.587500X-0.150000X-0.587500X0*%
%ADD16RoundRect,0.150000X-0.150000X0.587500X-0.150000X-0.587500X0.150000X-0.587500X0.150000X0.587500X0*%
G04 APERTURE END LIST*
D10*
%TO.C,J2*%
X151130000Y-85030000D02*
X171510000Y-85030000D01*
X151130000Y-85030000D02*
X151130000Y-87690000D01*
X149860000Y-85030000D02*
X148530000Y-85030000D01*
X171510000Y-85030000D02*
X171510000Y-87690000D01*
X151130000Y-87690000D02*
X171510000Y-87690000D01*
X148530000Y-85030000D02*
X148530000Y-86360000D01*
%TO.C,R15*%
X159548859Y-71500000D02*
X159856141Y-71500000D01*
X159548859Y-70740000D02*
X159856141Y-70740000D01*
%TO.C,R30*%
X149378641Y-83376500D02*
X149071359Y-83376500D01*
X149378641Y-84136500D02*
X149071359Y-84136500D01*
%TO.C,Q14*%
X157770000Y-81280000D02*
X157770000Y-82955000D01*
X154650000Y-81280000D02*
X154650000Y-81930000D01*
X157770000Y-81280000D02*
X157770000Y-80630000D01*
X154650000Y-81280000D02*
X154650000Y-80630000D01*
%TO.C,R13*%
X152563859Y-71500000D02*
X152871141Y-71500000D01*
X152563859Y-70740000D02*
X152871141Y-70740000D01*
%TO.C,Q2*%
X147292500Y-73660000D02*
X147292500Y-74310000D01*
X144172500Y-73660000D02*
X144172500Y-74310000D01*
X147292500Y-73660000D02*
X147292500Y-73010000D01*
X144172500Y-73660000D02*
X144172500Y-71985000D01*
%TO.C,R10*%
X142086359Y-70740000D02*
X142393641Y-70740000D01*
X142086359Y-71500000D02*
X142393641Y-71500000D01*
%TO.C,Q12*%
X150785000Y-81280000D02*
X150785000Y-80630000D01*
X147665000Y-81280000D02*
X147665000Y-80630000D01*
X147665000Y-81280000D02*
X147665000Y-81930000D01*
X150785000Y-81280000D02*
X150785000Y-82955000D01*
%TO.C,R18*%
X170026359Y-71500000D02*
X170333641Y-71500000D01*
X170026359Y-70740000D02*
X170333641Y-70740000D01*
%TO.C,R34*%
X163348641Y-84136500D02*
X163041359Y-84136500D01*
X163348641Y-83376500D02*
X163041359Y-83376500D01*
%TO.C,Q16*%
X161635000Y-81280000D02*
X161635000Y-80630000D01*
X164755000Y-81280000D02*
X164755000Y-82955000D01*
X161635000Y-81280000D02*
X161635000Y-81930000D01*
X164755000Y-81280000D02*
X164755000Y-80630000D01*
%TO.C,R16*%
X163041359Y-70740000D02*
X163348641Y-70740000D01*
X163041359Y-71500000D02*
X163348641Y-71500000D01*
%TO.C,Q9*%
X168620000Y-73660000D02*
X168620000Y-71985000D01*
X171740000Y-73660000D02*
X171740000Y-73010000D01*
X171740000Y-73660000D02*
X171740000Y-74310000D01*
X168620000Y-73660000D02*
X168620000Y-74310000D01*
%TO.C,R14*%
X156056359Y-70740000D02*
X156363641Y-70740000D01*
X156056359Y-71500000D02*
X156363641Y-71500000D01*
%TO.C,Q5*%
X157770000Y-73660000D02*
X157770000Y-73010000D01*
X157770000Y-73660000D02*
X157770000Y-74310000D01*
X154650000Y-73660000D02*
X154650000Y-74310000D01*
X154650000Y-73660000D02*
X154650000Y-71985000D01*
%TO.C,R32*%
X156363641Y-84136500D02*
X156056359Y-84136500D01*
X156363641Y-83376500D02*
X156056359Y-83376500D01*
%TO.C,Q17*%
X165127500Y-81280000D02*
X165127500Y-81930000D01*
X168247500Y-81280000D02*
X168247500Y-80630000D01*
X168247500Y-81280000D02*
X168247500Y-82955000D01*
X165127500Y-81280000D02*
X165127500Y-80630000D01*
%TO.C,Q15*%
X158142500Y-81280000D02*
X158142500Y-81930000D01*
X161262500Y-81280000D02*
X161262500Y-82955000D01*
X161262500Y-81280000D02*
X161262500Y-80630000D01*
X158142500Y-81280000D02*
X158142500Y-80630000D01*
%TO.C,Q18*%
X168620000Y-81280000D02*
X168620000Y-81930000D01*
X171740000Y-81280000D02*
X171740000Y-80630000D01*
X168620000Y-81280000D02*
X168620000Y-80630000D01*
X171740000Y-81280000D02*
X171740000Y-82955000D01*
%TO.C,Q4*%
X154277500Y-73660000D02*
X154277500Y-74310000D01*
X154277500Y-73660000D02*
X154277500Y-73010000D01*
X151157500Y-73660000D02*
X151157500Y-71985000D01*
X151157500Y-73660000D02*
X151157500Y-74310000D01*
%TO.C,Q6*%
X161262500Y-73660000D02*
X161262500Y-74310000D01*
X161262500Y-73660000D02*
X161262500Y-73010000D01*
X158142500Y-73660000D02*
X158142500Y-74310000D01*
X158142500Y-73660000D02*
X158142500Y-71985000D01*
%TO.C,Q8*%
X168247500Y-73660000D02*
X168247500Y-73010000D01*
X165127500Y-73660000D02*
X165127500Y-74310000D01*
X168247500Y-73660000D02*
X168247500Y-74310000D01*
X165127500Y-73660000D02*
X165127500Y-71985000D01*
%TO.C,R28*%
X142393641Y-83376500D02*
X142086359Y-83376500D01*
X142393641Y-84136500D02*
X142086359Y-84136500D01*
%TO.C,Q11*%
X144172500Y-81280000D02*
X144172500Y-81930000D01*
X147292500Y-81280000D02*
X147292500Y-80630000D01*
X147292500Y-81280000D02*
X147292500Y-82955000D01*
X144172500Y-81280000D02*
X144172500Y-80630000D01*
%TO.C,R35*%
X166841141Y-83376500D02*
X166533859Y-83376500D01*
X166841141Y-84136500D02*
X166533859Y-84136500D01*
%TO.C,Q13*%
X151157500Y-81280000D02*
X151157500Y-80630000D01*
X154277500Y-81280000D02*
X154277500Y-80630000D01*
X154277500Y-81280000D02*
X154277500Y-82955000D01*
X151157500Y-81280000D02*
X151157500Y-81930000D01*
%TO.C,Q7*%
X164755000Y-73660000D02*
X164755000Y-73010000D01*
X161635000Y-73660000D02*
X161635000Y-74310000D01*
X164755000Y-73660000D02*
X164755000Y-74310000D01*
X161635000Y-73660000D02*
X161635000Y-71985000D01*
%TO.C,R36*%
X170333641Y-84136500D02*
X170026359Y-84136500D01*
X170333641Y-83376500D02*
X170026359Y-83376500D01*
%TO.C,R11*%
X145578859Y-70740000D02*
X145886141Y-70740000D01*
X145578859Y-71500000D02*
X145886141Y-71500000D01*
%TO.C,R31*%
X152871141Y-83376500D02*
X152563859Y-83376500D01*
X152871141Y-84136500D02*
X152563859Y-84136500D01*
%TO.C,Q3*%
X150785000Y-73660000D02*
X150785000Y-73010000D01*
X147665000Y-73660000D02*
X147665000Y-74310000D01*
X150785000Y-73660000D02*
X150785000Y-74310000D01*
X147665000Y-73660000D02*
X147665000Y-71985000D01*
%TO.C,J3*%
X143510000Y-67250000D02*
X143510000Y-69910000D01*
X142240000Y-67250000D02*
X140910000Y-67250000D01*
X140910000Y-67250000D02*
X140910000Y-68580000D01*
X143510000Y-67250000D02*
X146110000Y-67250000D01*
X146110000Y-67250000D02*
X146110000Y-69910000D01*
X143510000Y-69910000D02*
X146110000Y-69910000D01*
%TO.C,Q10*%
X140680000Y-81280000D02*
X140680000Y-81930000D01*
X143800000Y-81280000D02*
X143800000Y-80630000D01*
X140680000Y-81280000D02*
X140680000Y-80630000D01*
X143800000Y-81280000D02*
X143800000Y-82955000D01*
%TO.C,R33*%
X159856141Y-83376500D02*
X159548859Y-83376500D01*
X159856141Y-84136500D02*
X159548859Y-84136500D01*
%TO.C,J1*%
X151130000Y-67250000D02*
X171510000Y-67250000D01*
X151130000Y-69910000D02*
X171510000Y-69910000D01*
X148530000Y-67250000D02*
X148530000Y-68580000D01*
X149860000Y-67250000D02*
X148530000Y-67250000D01*
X151130000Y-67250000D02*
X151130000Y-69910000D01*
X171510000Y-67250000D02*
X171510000Y-69910000D01*
%TO.C,R12*%
X149071359Y-70740000D02*
X149378641Y-70740000D01*
X149071359Y-71500000D02*
X149378641Y-71500000D01*
%TO.C,R29*%
X145886141Y-83376500D02*
X145578859Y-83376500D01*
X145886141Y-84136500D02*
X145578859Y-84136500D01*
%TO.C,R17*%
X166533859Y-70740000D02*
X166841141Y-70740000D01*
X166533859Y-71500000D02*
X166841141Y-71500000D01*
%TO.C,Q1*%
X143800000Y-73660000D02*
X143800000Y-74310000D01*
X140680000Y-73660000D02*
X140680000Y-71985000D01*
X143800000Y-73660000D02*
X143800000Y-73010000D01*
X140680000Y-73660000D02*
X140680000Y-74310000D01*
%TD*%
%LPC*%
D11*
%TO.C,J2*%
X149860000Y-86360000D03*
D12*
X152400000Y-86360000D03*
X154940000Y-86360000D03*
X157480000Y-86360000D03*
X160020000Y-86360000D03*
X162560000Y-86360000D03*
X165100000Y-86360000D03*
X167640000Y-86360000D03*
X170180000Y-86360000D03*
%TD*%
D13*
%TO.C,R15*%
X159192500Y-71120000D03*
X160212500Y-71120000D03*
%TD*%
D14*
%TO.C,R30*%
X149735000Y-83756500D03*
X148715000Y-83756500D03*
%TD*%
D15*
%TO.C,Q14*%
X157160000Y-82217500D03*
X155260000Y-82217500D03*
X156210000Y-80342500D03*
%TD*%
D13*
%TO.C,R13*%
X152207500Y-71120000D03*
X153227500Y-71120000D03*
%TD*%
D16*
%TO.C,Q2*%
X144782500Y-72722500D03*
X146682500Y-72722500D03*
X145732500Y-74597500D03*
%TD*%
D13*
%TO.C,R10*%
X141730000Y-71120000D03*
X142750000Y-71120000D03*
%TD*%
D15*
%TO.C,Q12*%
X150175000Y-82217500D03*
X148275000Y-82217500D03*
X149225000Y-80342500D03*
%TD*%
D13*
%TO.C,R18*%
X169670000Y-71120000D03*
X170690000Y-71120000D03*
%TD*%
D14*
%TO.C,R34*%
X163705000Y-83756500D03*
X162685000Y-83756500D03*
%TD*%
D15*
%TO.C,Q16*%
X164145000Y-82217500D03*
X162245000Y-82217500D03*
X163195000Y-80342500D03*
%TD*%
D13*
%TO.C,R16*%
X162685000Y-71120000D03*
X163705000Y-71120000D03*
%TD*%
D16*
%TO.C,Q9*%
X169230000Y-72722500D03*
X171130000Y-72722500D03*
X170180000Y-74597500D03*
%TD*%
D13*
%TO.C,R14*%
X155700000Y-71120000D03*
X156720000Y-71120000D03*
%TD*%
D16*
%TO.C,Q5*%
X155260000Y-72722500D03*
X157160000Y-72722500D03*
X156210000Y-74597500D03*
%TD*%
D14*
%TO.C,R32*%
X156720000Y-83756500D03*
X155700000Y-83756500D03*
%TD*%
D15*
%TO.C,Q17*%
X167637500Y-82217500D03*
X165737500Y-82217500D03*
X166687500Y-80342500D03*
%TD*%
%TO.C,Q15*%
X160652500Y-82217500D03*
X158752500Y-82217500D03*
X159702500Y-80342500D03*
%TD*%
%TO.C,Q18*%
X171130000Y-82217500D03*
X169230000Y-82217500D03*
X170180000Y-80342500D03*
%TD*%
D16*
%TO.C,Q4*%
X151767500Y-72722500D03*
X153667500Y-72722500D03*
X152717500Y-74597500D03*
%TD*%
%TO.C,Q6*%
X158752500Y-72722500D03*
X160652500Y-72722500D03*
X159702500Y-74597500D03*
%TD*%
%TO.C,Q8*%
X165737500Y-72722500D03*
X167637500Y-72722500D03*
X166687500Y-74597500D03*
%TD*%
D14*
%TO.C,R28*%
X142750000Y-83756500D03*
X141730000Y-83756500D03*
%TD*%
D15*
%TO.C,Q11*%
X146682500Y-82217500D03*
X144782500Y-82217500D03*
X145732500Y-80342500D03*
%TD*%
D14*
%TO.C,R35*%
X167197500Y-83756500D03*
X166177500Y-83756500D03*
%TD*%
D15*
%TO.C,Q13*%
X153667500Y-82217500D03*
X151767500Y-82217500D03*
X152717500Y-80342500D03*
%TD*%
D16*
%TO.C,Q7*%
X162245000Y-72722500D03*
X164145000Y-72722500D03*
X163195000Y-74597500D03*
%TD*%
D14*
%TO.C,R36*%
X170690000Y-83756500D03*
X169670000Y-83756500D03*
%TD*%
D13*
%TO.C,R11*%
X145222500Y-71120000D03*
X146242500Y-71120000D03*
%TD*%
D14*
%TO.C,R31*%
X153227500Y-83756500D03*
X152207500Y-83756500D03*
%TD*%
D16*
%TO.C,Q3*%
X148275000Y-72722500D03*
X150175000Y-72722500D03*
X149225000Y-74597500D03*
%TD*%
D11*
%TO.C,J3*%
X142240000Y-68580000D03*
D12*
X144780000Y-68580000D03*
%TD*%
D15*
%TO.C,Q10*%
X143190000Y-82217500D03*
X141290000Y-82217500D03*
X142240000Y-80342500D03*
%TD*%
D14*
%TO.C,R33*%
X160212500Y-83756500D03*
X159192500Y-83756500D03*
%TD*%
D11*
%TO.C,J1*%
X149860000Y-68580000D03*
D12*
X152400000Y-68580000D03*
X154940000Y-68580000D03*
X157480000Y-68580000D03*
X160020000Y-68580000D03*
X162560000Y-68580000D03*
X165100000Y-68580000D03*
X167640000Y-68580000D03*
X170180000Y-68580000D03*
%TD*%
D13*
%TO.C,R12*%
X148715000Y-71120000D03*
X149735000Y-71120000D03*
%TD*%
D14*
%TO.C,R29*%
X146242500Y-83756500D03*
X145222500Y-83756500D03*
%TD*%
D13*
%TO.C,R17*%
X166177500Y-71120000D03*
X167197500Y-71120000D03*
%TD*%
D16*
%TO.C,Q1*%
X141290000Y-72722500D03*
X143190000Y-72722500D03*
X142240000Y-74597500D03*
%TD*%
M02*
