%TF.GenerationSoftware,KiCad,Pcbnew,(6.0.9)*%
%TF.CreationDate,2024-05-18T22:59:34+02:00*%
%TF.ProjectId,Breadboard-byte-leds,42726561-6462-46f6-9172-642d62797465,rev?*%
%TF.SameCoordinates,Original*%
%TF.FileFunction,Copper,L1,Top*%
%TF.FilePolarity,Positive*%
%FSLAX46Y46*%
G04 Gerber Fmt 4.6, Leading zero omitted, Abs format (unit mm)*
G04 Created by KiCad (PCBNEW (6.0.9)) date 2024-05-18 22:59:34*
%MOMM*%
%LPD*%
G01*
G04 APERTURE LIST*
G04 Aperture macros list*
%AMRoundRect*
0 Rectangle with rounded corners*
0 $1 Rounding radius*
0 $2 $3 $4 $5 $6 $7 $8 $9 X,Y pos of 4 corners*
0 Add a 4 corners polygon primitive as box body*
4,1,4,$2,$3,$4,$5,$6,$7,$8,$9,$2,$3,0*
0 Add four circle primitives for the rounded corners*
1,1,$1+$1,$2,$3*
1,1,$1+$1,$4,$5*
1,1,$1+$1,$6,$7*
1,1,$1+$1,$8,$9*
0 Add four rect primitives between the rounded corners*
20,1,$1+$1,$2,$3,$4,$5,0*
20,1,$1+$1,$4,$5,$6,$7,0*
20,1,$1+$1,$6,$7,$8,$9,0*
20,1,$1+$1,$8,$9,$2,$3,0*%
G04 Aperture macros list end*
%TA.AperFunction,SMDPad,CuDef*%
%ADD10RoundRect,0.135000X-0.135000X-0.185000X0.135000X-0.185000X0.135000X0.185000X-0.135000X0.185000X0*%
%TD*%
%TA.AperFunction,SMDPad,CuDef*%
%ADD11RoundRect,0.218750X-0.256250X0.218750X-0.256250X-0.218750X0.256250X-0.218750X0.256250X0.218750X0*%
%TD*%
%TA.AperFunction,SMDPad,CuDef*%
%ADD12RoundRect,0.218750X0.256250X-0.218750X0.256250X0.218750X-0.256250X0.218750X-0.256250X-0.218750X0*%
%TD*%
%TA.AperFunction,ComponentPad*%
%ADD13R,1.700000X1.700000*%
%TD*%
%TA.AperFunction,ComponentPad*%
%ADD14O,1.700000X1.700000*%
%TD*%
%TA.AperFunction,ViaPad*%
%ADD15C,0.250000*%
%TD*%
%TA.AperFunction,Conductor*%
%ADD16C,0.127000*%
%TD*%
G04 APERTURE END LIST*
D10*
%TO.P,R19,1*%
%TO.N,+3.3V*%
X149350000Y-83820000D03*
%TO.P,R19,2*%
%TO.N,Net-(D10-Pad2)*%
X150370000Y-83820000D03*
%TD*%
D11*
%TO.P,D12,1,K*%
%TO.N,Net-(D12-Pad1)*%
X154940000Y-80492500D03*
%TO.P,D12,2,A*%
%TO.N,Net-(D12-Pad2)*%
X154940000Y-82067500D03*
%TD*%
D12*
%TO.P,D4,1,K*%
%TO.N,Net-(D4-Pad1)*%
X157480000Y-74447500D03*
%TO.P,D4,2,A*%
%TO.N,Net-(D4-Pad2)*%
X157480000Y-72872500D03*
%TD*%
D11*
%TO.P,D15,1,K*%
%TO.N,Net-(D15-Pad1)*%
X162560000Y-80492500D03*
%TO.P,D15,2,A*%
%TO.N,Net-(D15-Pad2)*%
X162560000Y-82067500D03*
%TD*%
D10*
%TO.P,R8,1*%
%TO.N,+3.3V*%
X167130000Y-71120000D03*
%TO.P,R8,2*%
%TO.N,Net-(D8-Pad2)*%
X168150000Y-71120000D03*
%TD*%
%TO.P,R26,1*%
%TO.N,+3.3V*%
X167130000Y-83820000D03*
%TO.P,R26,2*%
%TO.N,Net-(D17-Pad2)*%
X168150000Y-83820000D03*
%TD*%
%TO.P,R3,1*%
%TO.N,+3.3V*%
X154430000Y-71120000D03*
%TO.P,R3,2*%
%TO.N,Net-(D3-Pad2)*%
X155450000Y-71120000D03*
%TD*%
%TO.P,R7,1*%
%TO.N,+3.3V*%
X164590000Y-71120000D03*
%TO.P,R7,2*%
%TO.N,Net-(D7-Pad2)*%
X165610000Y-71120000D03*
%TD*%
%TO.P,R6,1*%
%TO.N,+3.3V*%
X162050000Y-71120000D03*
%TO.P,R6,2*%
%TO.N,Net-(D6-Pad2)*%
X163070000Y-71120000D03*
%TD*%
D11*
%TO.P,D13,1,K*%
%TO.N,Net-(D13-Pad1)*%
X157480000Y-80492500D03*
%TO.P,D13,2,A*%
%TO.N,Net-(D13-Pad2)*%
X157480000Y-82067500D03*
%TD*%
%TO.P,D16,1,K*%
%TO.N,Net-(D16-Pad1)*%
X165100000Y-80492500D03*
%TO.P,D16,2,A*%
%TO.N,Net-(D16-Pad2)*%
X165100000Y-82067500D03*
%TD*%
D12*
%TO.P,D3,1,K*%
%TO.N,Net-(D3-Pad1)*%
X154940000Y-74447500D03*
%TO.P,D3,2,A*%
%TO.N,Net-(D3-Pad2)*%
X154940000Y-72872500D03*
%TD*%
%TO.P,D9,1,K*%
%TO.N,Net-(D9-Pad1)*%
X170180000Y-74447500D03*
%TO.P,D9,2,A*%
%TO.N,Net-(D9-Pad2)*%
X170180000Y-72872500D03*
%TD*%
D10*
%TO.P,R4,1*%
%TO.N,+3.3V*%
X156970000Y-71120000D03*
%TO.P,R4,2*%
%TO.N,Net-(D4-Pad2)*%
X157990000Y-71120000D03*
%TD*%
%TO.P,R20,1*%
%TO.N,+3.3V*%
X151890000Y-83820000D03*
%TO.P,R20,2*%
%TO.N,Net-(D11-Pad2)*%
X152910000Y-83820000D03*
%TD*%
%TO.P,R9,1*%
%TO.N,+3.3V*%
X169670000Y-71120000D03*
%TO.P,R9,2*%
%TO.N,Net-(D9-Pad2)*%
X170690000Y-71120000D03*
%TD*%
%TO.P,R2,1*%
%TO.N,+3.3V*%
X151890000Y-71120000D03*
%TO.P,R2,2*%
%TO.N,Net-(D2-Pad2)*%
X152910000Y-71120000D03*
%TD*%
%TO.P,R27,1*%
%TO.N,+3.3V*%
X169670000Y-83756500D03*
%TO.P,R27,2*%
%TO.N,Net-(D18-Pad2)*%
X170690000Y-83756500D03*
%TD*%
%TO.P,R1,1*%
%TO.N,+3.3V*%
X149350000Y-71120000D03*
%TO.P,R1,2*%
%TO.N,Net-(D1-Pad2)*%
X150370000Y-71120000D03*
%TD*%
D11*
%TO.P,D14,1,K*%
%TO.N,Net-(D14-Pad1)*%
X160020000Y-80492500D03*
%TO.P,D14,2,A*%
%TO.N,Net-(D14-Pad2)*%
X160020000Y-82067500D03*
%TD*%
D10*
%TO.P,R24,1*%
%TO.N,+3.3V*%
X162050000Y-83820000D03*
%TO.P,R24,2*%
%TO.N,Net-(D15-Pad2)*%
X163070000Y-83820000D03*
%TD*%
D11*
%TO.P,D18,1,K*%
%TO.N,Net-(D18-Pad1)*%
X170180000Y-80492500D03*
%TO.P,D18,2,A*%
%TO.N,Net-(D18-Pad2)*%
X170180000Y-82067500D03*
%TD*%
D12*
%TO.P,D8,1,K*%
%TO.N,Net-(D8-Pad1)*%
X167640000Y-74447500D03*
%TO.P,D8,2,A*%
%TO.N,Net-(D8-Pad2)*%
X167640000Y-72872500D03*
%TD*%
D11*
%TO.P,D17,1,K*%
%TO.N,Net-(D17-Pad1)*%
X167640000Y-80492500D03*
%TO.P,D17,2,A*%
%TO.N,Net-(D17-Pad2)*%
X167640000Y-82067500D03*
%TD*%
D12*
%TO.P,D6,1,K*%
%TO.N,Net-(D6-Pad1)*%
X162560000Y-74447500D03*
%TO.P,D6,2,A*%
%TO.N,Net-(D6-Pad2)*%
X162560000Y-72872500D03*
%TD*%
D11*
%TO.P,D10,1,K*%
%TO.N,Net-(D10-Pad1)*%
X149860000Y-80492500D03*
%TO.P,D10,2,A*%
%TO.N,Net-(D10-Pad2)*%
X149860000Y-82067500D03*
%TD*%
D12*
%TO.P,D7,1,K*%
%TO.N,Net-(D7-Pad1)*%
X165100000Y-74447500D03*
%TO.P,D7,2,A*%
%TO.N,Net-(D7-Pad2)*%
X165100000Y-72872500D03*
%TD*%
%TO.P,D5,1,K*%
%TO.N,Net-(D5-Pad1)*%
X160020000Y-74447500D03*
%TO.P,D5,2,A*%
%TO.N,Net-(D5-Pad2)*%
X160020000Y-72872500D03*
%TD*%
D10*
%TO.P,R21,1*%
%TO.N,+3.3V*%
X154430000Y-83820000D03*
%TO.P,R21,2*%
%TO.N,Net-(D12-Pad2)*%
X155450000Y-83820000D03*
%TD*%
%TO.P,R5,1*%
%TO.N,+3.3V*%
X159510000Y-71120000D03*
%TO.P,R5,2*%
%TO.N,Net-(D5-Pad2)*%
X160530000Y-71120000D03*
%TD*%
%TO.P,R22,1*%
%TO.N,+3.3V*%
X156970000Y-83820000D03*
%TO.P,R22,2*%
%TO.N,Net-(D13-Pad2)*%
X157990000Y-83820000D03*
%TD*%
D12*
%TO.P,D1,1,K*%
%TO.N,Net-(D1-Pad1)*%
X149860000Y-74447500D03*
%TO.P,D1,2,A*%
%TO.N,Net-(D1-Pad2)*%
X149860000Y-72872500D03*
%TD*%
%TO.P,D2,1,K*%
%TO.N,Net-(D2-Pad1)*%
X152400000Y-74447500D03*
%TO.P,D2,2,A*%
%TO.N,Net-(D2-Pad2)*%
X152400000Y-72872500D03*
%TD*%
D10*
%TO.P,R25,1*%
%TO.N,+3.3V*%
X164590000Y-83820000D03*
%TO.P,R25,2*%
%TO.N,Net-(D16-Pad2)*%
X165610000Y-83820000D03*
%TD*%
%TO.P,R23,1*%
%TO.N,+3.3V*%
X159510000Y-83820000D03*
%TO.P,R23,2*%
%TO.N,Net-(D14-Pad2)*%
X160530000Y-83820000D03*
%TD*%
D11*
%TO.P,D11,1,K*%
%TO.N,Net-(D11-Pad1)*%
X152400000Y-80492500D03*
%TO.P,D11,2,A*%
%TO.N,Net-(D11-Pad2)*%
X152400000Y-82067500D03*
%TD*%
D13*
%TO.P,J2,1,Pin_1*%
%TO.N,/LED10_GATE*%
X149860000Y-86360000D03*
D14*
%TO.P,J2,2,Pin_2*%
%TO.N,/LED11_GATE*%
X152400000Y-86360000D03*
%TO.P,J2,3,Pin_3*%
%TO.N,/LED12_GATE*%
X154940000Y-86360000D03*
%TO.P,J2,4,Pin_4*%
%TO.N,/LED13_GATE*%
X157480000Y-86360000D03*
%TO.P,J2,5,Pin_5*%
%TO.N,/LED14_GATE*%
X160020000Y-86360000D03*
%TO.P,J2,6,Pin_6*%
%TO.N,/LED15_GATE*%
X162560000Y-86360000D03*
%TO.P,J2,7,Pin_7*%
%TO.N,/LED16_GATE*%
X165100000Y-86360000D03*
%TO.P,J2,8,Pin_8*%
%TO.N,/LED17_GATE*%
X167640000Y-86360000D03*
%TO.P,J2,9,Pin_9*%
%TO.N,/LED18_GATE*%
X170180000Y-86360000D03*
%TD*%
D13*
%TO.P,J3,1,Pin_1*%
%TO.N,GND*%
X142240000Y-68580000D03*
D14*
%TO.P,J3,2,Pin_2*%
%TO.N,+3.3V*%
X144780000Y-68580000D03*
%TD*%
D13*
%TO.P,J1,1,Pin_1*%
%TO.N,/LED1_GATE*%
X149860000Y-68580000D03*
D14*
%TO.P,J1,2,Pin_2*%
%TO.N,/LED2_GATE*%
X152400000Y-68580000D03*
%TO.P,J1,3,Pin_3*%
%TO.N,/LED3_GATE*%
X154940000Y-68580000D03*
%TO.P,J1,4,Pin_4*%
%TO.N,/LED4_GATE*%
X157480000Y-68580000D03*
%TO.P,J1,5,Pin_5*%
%TO.N,/LED5_GATE*%
X160020000Y-68580000D03*
%TO.P,J1,6,Pin_6*%
%TO.N,/LED6_GATE*%
X162560000Y-68580000D03*
%TO.P,J1,7,Pin_7*%
%TO.N,/LED7_GATE*%
X165100000Y-68580000D03*
%TO.P,J1,8,Pin_8*%
%TO.N,/LED8_GATE*%
X167640000Y-68580000D03*
%TO.P,J1,9,Pin_9*%
%TO.N,/LED9_GATE*%
X170180000Y-68580000D03*
%TD*%
D15*
%TO.N,Net-(D1-Pad1)*%
X149860000Y-76835000D03*
%TO.N,Net-(D2-Pad1)*%
X152400000Y-76482500D03*
%TO.N,Net-(D3-Pad1)*%
X154940000Y-76040500D03*
%TO.N,Net-(D4-Pad1)*%
X157480000Y-75565000D03*
%TO.N,Net-(D5-Pad1)*%
X158750000Y-74549000D03*
%TO.N,Net-(D6-Pad1)*%
X161417000Y-74549000D03*
%TO.N,Net-(D7-Pad1)*%
X163957000Y-74549000D03*
%TO.N,Net-(D8-Pad1)*%
X167640000Y-75311000D03*
%TO.N,Net-(D9-Pad1)*%
X169037000Y-74549000D03*
%TO.N,Net-(D10-Pad1)*%
X149860000Y-78015500D03*
%TO.N,Net-(D11-Pad1)*%
X152527000Y-78457500D03*
%TO.N,Net-(D12-Pad1)*%
X154940000Y-78899500D03*
%TO.N,Net-(D13-Pad1)*%
X157480000Y-79375000D03*
%TO.N,Net-(D14-Pad1)*%
X158750000Y-80391000D03*
%TO.N,Net-(D15-Pad1)*%
X161290000Y-80391000D03*
%TO.N,Net-(D16-Pad1)*%
X164084000Y-80518000D03*
%TO.N,Net-(D17-Pad1)*%
X167640000Y-79502000D03*
%TO.N,Net-(D18-Pad1)*%
X169164000Y-80391000D03*
%TD*%
D16*
%TO.N,Net-(D1-Pad1)*%
X149860000Y-76835000D02*
X149860000Y-74447500D01*
%TO.N,Net-(D1-Pad2)*%
X150370000Y-72362500D02*
X150370000Y-71120000D01*
X149860000Y-72872500D02*
X150370000Y-72362500D01*
%TO.N,Net-(D2-Pad1)*%
X152400000Y-76482500D02*
X152400000Y-74447500D01*
%TO.N,Net-(D2-Pad2)*%
X152400000Y-72872500D02*
X152910000Y-72362500D01*
X152910000Y-72362500D02*
X152910000Y-71120000D01*
%TO.N,Net-(D3-Pad1)*%
X154940000Y-76040500D02*
X154940000Y-74447500D01*
%TO.N,Net-(D3-Pad2)*%
X155450000Y-72362500D02*
X155450000Y-71120000D01*
X154940000Y-72872500D02*
X155450000Y-72362500D01*
%TO.N,Net-(D4-Pad1)*%
X157480000Y-75565000D02*
X157480000Y-74447500D01*
%TO.N,Net-(D4-Pad2)*%
X157505500Y-72872500D02*
X157990000Y-72388000D01*
X157990000Y-72388000D02*
X157990000Y-71120000D01*
X157480000Y-72872500D02*
X157505500Y-72872500D01*
%TO.N,Net-(D5-Pad1)*%
X159918500Y-74549000D02*
X160020000Y-74447500D01*
X158750000Y-74549000D02*
X159918500Y-74549000D01*
%TO.N,Net-(D5-Pad2)*%
X160530000Y-72362500D02*
X160530000Y-71120000D01*
X160020000Y-72872500D02*
X160530000Y-72362500D01*
%TO.N,Net-(D6-Pad1)*%
X161417000Y-74549000D02*
X162458500Y-74549000D01*
X162458500Y-74549000D02*
X162560000Y-74447500D01*
%TO.N,Net-(D6-Pad2)*%
X162560000Y-72872500D02*
X163070000Y-72362500D01*
X163070000Y-72362500D02*
X163070000Y-71120000D01*
%TO.N,Net-(D7-Pad1)*%
X163957000Y-74549000D02*
X164998500Y-74549000D01*
X164998500Y-74549000D02*
X165100000Y-74447500D01*
%TO.N,Net-(D7-Pad2)*%
X165610000Y-72362500D02*
X165610000Y-71120000D01*
X165100000Y-72872500D02*
X165610000Y-72362500D01*
%TO.N,Net-(D8-Pad1)*%
X167640000Y-75311000D02*
X167640000Y-74447500D01*
%TO.N,Net-(D8-Pad2)*%
X168150000Y-72362500D02*
X168150000Y-71120000D01*
X167640000Y-72872500D02*
X168150000Y-72362500D01*
%TO.N,Net-(D9-Pad1)*%
X169037000Y-74549000D02*
X170078500Y-74549000D01*
X170078500Y-74549000D02*
X170180000Y-74447500D01*
%TO.N,Net-(D9-Pad2)*%
X170690000Y-72362500D02*
X170690000Y-71120000D01*
X170180000Y-72872500D02*
X170690000Y-72362500D01*
%TO.N,Net-(D10-Pad1)*%
X149860000Y-78015500D02*
X149860000Y-80492500D01*
%TO.N,Net-(D10-Pad2)*%
X149860000Y-82067500D02*
X149860000Y-83310000D01*
X149860000Y-83310000D02*
X150370000Y-83820000D01*
%TO.N,Net-(D11-Pad1)*%
X152527000Y-78457500D02*
X152527000Y-80365500D01*
X152527000Y-80365500D02*
X152400000Y-80492500D01*
%TO.N,Net-(D11-Pad2)*%
X152400000Y-82067500D02*
X152400000Y-83310000D01*
X152400000Y-83310000D02*
X152910000Y-83820000D01*
%TO.N,Net-(D12-Pad1)*%
X154940000Y-78899500D02*
X154940000Y-80492500D01*
%TO.N,Net-(D12-Pad2)*%
X154940000Y-83310000D02*
X155450000Y-83820000D01*
X154940000Y-82067500D02*
X154940000Y-83310000D01*
%TO.N,Net-(D13-Pad1)*%
X157480000Y-79375000D02*
X157480000Y-80492500D01*
%TO.N,Net-(D13-Pad2)*%
X157480000Y-82067500D02*
X157480000Y-83310000D01*
X157480000Y-83310000D02*
X157990000Y-83820000D01*
%TO.N,Net-(D14-Pad1)*%
X158750000Y-80391000D02*
X159918500Y-80391000D01*
X159918500Y-80391000D02*
X160020000Y-80492500D01*
%TO.N,Net-(D14-Pad2)*%
X160020000Y-82067500D02*
X160020000Y-83310000D01*
X160020000Y-83310000D02*
X160530000Y-83820000D01*
%TO.N,Net-(D15-Pad1)*%
X162458500Y-80391000D02*
X162560000Y-80492500D01*
X161290000Y-80391000D02*
X162458500Y-80391000D01*
%TO.N,Net-(D15-Pad2)*%
X162560000Y-82067500D02*
X162560000Y-83310000D01*
X162560000Y-83310000D02*
X163070000Y-83820000D01*
%TO.N,Net-(D16-Pad1)*%
X164084000Y-80518000D02*
X165074500Y-80518000D01*
X165074500Y-80518000D02*
X165100000Y-80492500D01*
%TO.N,Net-(D16-Pad2)*%
X165100000Y-83310000D02*
X165610000Y-83820000D01*
X165100000Y-82067500D02*
X165100000Y-83310000D01*
%TO.N,Net-(D17-Pad1)*%
X167640000Y-79502000D02*
X167640000Y-80492500D01*
%TO.N,Net-(D17-Pad2)*%
X167640000Y-83310000D02*
X168150000Y-83820000D01*
X167640000Y-82067500D02*
X167640000Y-83310000D01*
%TO.N,Net-(D18-Pad1)*%
X169164000Y-80391000D02*
X170078500Y-80391000D01*
X170078500Y-80391000D02*
X170180000Y-80492500D01*
%TO.N,Net-(D18-Pad2)*%
X170180000Y-83246500D02*
X170690000Y-83756500D01*
X170180000Y-82067500D02*
X170180000Y-83246500D01*
%TD*%
%TA.AperFunction,Conductor*%
%TO.N,+3.3V*%
G36*
X148600299Y-67203502D02*
G01*
X148646792Y-67257158D01*
X148656896Y-67327432D01*
X148633004Y-67385065D01*
X148564771Y-67476108D01*
X148559385Y-67483295D01*
X148508255Y-67619684D01*
X148501500Y-67681866D01*
X148501500Y-69478134D01*
X148508255Y-69540316D01*
X148559385Y-69676705D01*
X148646739Y-69793261D01*
X148763295Y-69880615D01*
X148899684Y-69931745D01*
X148961866Y-69938500D01*
X150758134Y-69938500D01*
X150820316Y-69931745D01*
X150956705Y-69880615D01*
X151073261Y-69793261D01*
X151160615Y-69676705D01*
X151182799Y-69617529D01*
X151204598Y-69559382D01*
X151247240Y-69502618D01*
X151313802Y-69477918D01*
X151383150Y-69493126D01*
X151417817Y-69521114D01*
X151446250Y-69553938D01*
X151618126Y-69696632D01*
X151811000Y-69809338D01*
X152019692Y-69889030D01*
X152024760Y-69890061D01*
X152024763Y-69890062D01*
X152112057Y-69907822D01*
X152238597Y-69933567D01*
X152243772Y-69933757D01*
X152243774Y-69933757D01*
X152456673Y-69941564D01*
X152456677Y-69941564D01*
X152461837Y-69941753D01*
X152466957Y-69941097D01*
X152466959Y-69941097D01*
X152678288Y-69914025D01*
X152678289Y-69914025D01*
X152683416Y-69913368D01*
X152688366Y-69911883D01*
X152892429Y-69850661D01*
X152892434Y-69850659D01*
X152897384Y-69849174D01*
X153097994Y-69750896D01*
X153279860Y-69621173D01*
X153438096Y-69463489D01*
X153568453Y-69282077D01*
X153569776Y-69283028D01*
X153616645Y-69239857D01*
X153686580Y-69227625D01*
X153752026Y-69255144D01*
X153779875Y-69286994D01*
X153839987Y-69385088D01*
X153986250Y-69553938D01*
X154158126Y-69696632D01*
X154351000Y-69809338D01*
X154559692Y-69889030D01*
X154564760Y-69890061D01*
X154564763Y-69890062D01*
X154652057Y-69907822D01*
X154778597Y-69933567D01*
X154783772Y-69933757D01*
X154783774Y-69933757D01*
X154996673Y-69941564D01*
X154996677Y-69941564D01*
X155001837Y-69941753D01*
X155006957Y-69941097D01*
X155006959Y-69941097D01*
X155218288Y-69914025D01*
X155218289Y-69914025D01*
X155223416Y-69913368D01*
X155228366Y-69911883D01*
X155432429Y-69850661D01*
X155432434Y-69850659D01*
X155437384Y-69849174D01*
X155637994Y-69750896D01*
X155819860Y-69621173D01*
X155978096Y-69463489D01*
X156108453Y-69282077D01*
X156109776Y-69283028D01*
X156156645Y-69239857D01*
X156226580Y-69227625D01*
X156292026Y-69255144D01*
X156319875Y-69286994D01*
X156379987Y-69385088D01*
X156526250Y-69553938D01*
X156698126Y-69696632D01*
X156891000Y-69809338D01*
X157099692Y-69889030D01*
X157104760Y-69890061D01*
X157104763Y-69890062D01*
X157192057Y-69907822D01*
X157318597Y-69933567D01*
X157323772Y-69933757D01*
X157323774Y-69933757D01*
X157536673Y-69941564D01*
X157536677Y-69941564D01*
X157541837Y-69941753D01*
X157546957Y-69941097D01*
X157546959Y-69941097D01*
X157758288Y-69914025D01*
X157758289Y-69914025D01*
X157763416Y-69913368D01*
X157768366Y-69911883D01*
X157972429Y-69850661D01*
X157972434Y-69850659D01*
X157977384Y-69849174D01*
X158177994Y-69750896D01*
X158359860Y-69621173D01*
X158518096Y-69463489D01*
X158648453Y-69282077D01*
X158649776Y-69283028D01*
X158696645Y-69239857D01*
X158766580Y-69227625D01*
X158832026Y-69255144D01*
X158859875Y-69286994D01*
X158919987Y-69385088D01*
X159066250Y-69553938D01*
X159238126Y-69696632D01*
X159431000Y-69809338D01*
X159639692Y-69889030D01*
X159644760Y-69890061D01*
X159644763Y-69890062D01*
X159732057Y-69907822D01*
X159858597Y-69933567D01*
X159863772Y-69933757D01*
X159863774Y-69933757D01*
X160076673Y-69941564D01*
X160076677Y-69941564D01*
X160081837Y-69941753D01*
X160086957Y-69941097D01*
X160086959Y-69941097D01*
X160298288Y-69914025D01*
X160298289Y-69914025D01*
X160303416Y-69913368D01*
X160308366Y-69911883D01*
X160512429Y-69850661D01*
X160512434Y-69850659D01*
X160517384Y-69849174D01*
X160717994Y-69750896D01*
X160899860Y-69621173D01*
X161058096Y-69463489D01*
X161188453Y-69282077D01*
X161189776Y-69283028D01*
X161236645Y-69239857D01*
X161306580Y-69227625D01*
X161372026Y-69255144D01*
X161399875Y-69286994D01*
X161459987Y-69385088D01*
X161606250Y-69553938D01*
X161778126Y-69696632D01*
X161971000Y-69809338D01*
X162179692Y-69889030D01*
X162184760Y-69890061D01*
X162184763Y-69890062D01*
X162272057Y-69907822D01*
X162398597Y-69933567D01*
X162403772Y-69933757D01*
X162403774Y-69933757D01*
X162616673Y-69941564D01*
X162616677Y-69941564D01*
X162621837Y-69941753D01*
X162626957Y-69941097D01*
X162626959Y-69941097D01*
X162838288Y-69914025D01*
X162838289Y-69914025D01*
X162843416Y-69913368D01*
X162848366Y-69911883D01*
X163052429Y-69850661D01*
X163052434Y-69850659D01*
X163057384Y-69849174D01*
X163257994Y-69750896D01*
X163439860Y-69621173D01*
X163598096Y-69463489D01*
X163728453Y-69282077D01*
X163729776Y-69283028D01*
X163776645Y-69239857D01*
X163846580Y-69227625D01*
X163912026Y-69255144D01*
X163939875Y-69286994D01*
X163999987Y-69385088D01*
X164146250Y-69553938D01*
X164318126Y-69696632D01*
X164511000Y-69809338D01*
X164719692Y-69889030D01*
X164724760Y-69890061D01*
X164724763Y-69890062D01*
X164812057Y-69907822D01*
X164938597Y-69933567D01*
X164943772Y-69933757D01*
X164943774Y-69933757D01*
X165156673Y-69941564D01*
X165156677Y-69941564D01*
X165161837Y-69941753D01*
X165166957Y-69941097D01*
X165166959Y-69941097D01*
X165378288Y-69914025D01*
X165378289Y-69914025D01*
X165383416Y-69913368D01*
X165388366Y-69911883D01*
X165592429Y-69850661D01*
X165592434Y-69850659D01*
X165597384Y-69849174D01*
X165797994Y-69750896D01*
X165979860Y-69621173D01*
X166138096Y-69463489D01*
X166268453Y-69282077D01*
X166269776Y-69283028D01*
X166316645Y-69239857D01*
X166386580Y-69227625D01*
X166452026Y-69255144D01*
X166479875Y-69286994D01*
X166539987Y-69385088D01*
X166686250Y-69553938D01*
X166858126Y-69696632D01*
X167051000Y-69809338D01*
X167259692Y-69889030D01*
X167264760Y-69890061D01*
X167264763Y-69890062D01*
X167352057Y-69907822D01*
X167478597Y-69933567D01*
X167483772Y-69933757D01*
X167483774Y-69933757D01*
X167696673Y-69941564D01*
X167696677Y-69941564D01*
X167701837Y-69941753D01*
X167706957Y-69941097D01*
X167706959Y-69941097D01*
X167918288Y-69914025D01*
X167918289Y-69914025D01*
X167923416Y-69913368D01*
X167928366Y-69911883D01*
X168132429Y-69850661D01*
X168132434Y-69850659D01*
X168137384Y-69849174D01*
X168337994Y-69750896D01*
X168519860Y-69621173D01*
X168678096Y-69463489D01*
X168808453Y-69282077D01*
X168809776Y-69283028D01*
X168856645Y-69239857D01*
X168926580Y-69227625D01*
X168992026Y-69255144D01*
X169019875Y-69286994D01*
X169079987Y-69385088D01*
X169226250Y-69553938D01*
X169398126Y-69696632D01*
X169591000Y-69809338D01*
X169799692Y-69889030D01*
X169804760Y-69890061D01*
X169804763Y-69890062D01*
X169892057Y-69907822D01*
X170018597Y-69933567D01*
X170023772Y-69933757D01*
X170023774Y-69933757D01*
X170236673Y-69941564D01*
X170236677Y-69941564D01*
X170241837Y-69941753D01*
X170246957Y-69941097D01*
X170246959Y-69941097D01*
X170458288Y-69914025D01*
X170458289Y-69914025D01*
X170463416Y-69913368D01*
X170468366Y-69911883D01*
X170672429Y-69850661D01*
X170672434Y-69850659D01*
X170677384Y-69849174D01*
X170877994Y-69750896D01*
X171059860Y-69621173D01*
X171218096Y-69463489D01*
X171348177Y-69282461D01*
X171404172Y-69238813D01*
X171474875Y-69232367D01*
X171537840Y-69265170D01*
X171573074Y-69326806D01*
X171576500Y-69355987D01*
X171576500Y-70480997D01*
X171556498Y-70549118D01*
X171502842Y-70595611D01*
X171432568Y-70605715D01*
X171367988Y-70576221D01*
X171346501Y-70550473D01*
X171346403Y-70550549D01*
X171344279Y-70547812D01*
X171342045Y-70545134D01*
X171341540Y-70544280D01*
X171337506Y-70537459D01*
X171222541Y-70422494D01*
X171136352Y-70371522D01*
X171089419Y-70343766D01*
X171089418Y-70343766D01*
X171082596Y-70339731D01*
X171074985Y-70337520D01*
X171074983Y-70337519D01*
X170932644Y-70296166D01*
X170932645Y-70296166D01*
X170926466Y-70294371D01*
X170920059Y-70293867D01*
X170920055Y-70293866D01*
X170892444Y-70291693D01*
X170892438Y-70291693D01*
X170889989Y-70291500D01*
X170690122Y-70291500D01*
X170490012Y-70291501D01*
X170453534Y-70294371D01*
X170356730Y-70322495D01*
X170305017Y-70337519D01*
X170305015Y-70337520D01*
X170297404Y-70339731D01*
X170243647Y-70371523D01*
X170174834Y-70388982D01*
X170115370Y-70371522D01*
X170069220Y-70344229D01*
X170054783Y-70337981D01*
X169941395Y-70305039D01*
X169927295Y-70305079D01*
X169924000Y-70312349D01*
X169924000Y-70782458D01*
X169918997Y-70817610D01*
X169916166Y-70827353D01*
X169916165Y-70827360D01*
X169914371Y-70833534D01*
X169913867Y-70839941D01*
X169913866Y-70839945D01*
X169911693Y-70867556D01*
X169911500Y-70870011D01*
X169911500Y-70872480D01*
X169911501Y-71248000D01*
X169891499Y-71316120D01*
X169837844Y-71362613D01*
X169785501Y-71374000D01*
X169542000Y-71374000D01*
X169473879Y-71353998D01*
X169427386Y-71300342D01*
X169416000Y-71248000D01*
X169416000Y-70318100D01*
X169412027Y-70304569D01*
X169404129Y-70303434D01*
X169285217Y-70337981D01*
X169270778Y-70344230D01*
X169144595Y-70418854D01*
X169132159Y-70428501D01*
X169028501Y-70532159D01*
X169018856Y-70544593D01*
X169018745Y-70544781D01*
X169018619Y-70544899D01*
X169013998Y-70550856D01*
X169013037Y-70550111D01*
X168966852Y-70593234D01*
X168897002Y-70605940D01*
X168831371Y-70578865D01*
X168806661Y-70550349D01*
X168806403Y-70550549D01*
X168802716Y-70545797D01*
X168801839Y-70544784D01*
X168801544Y-70544285D01*
X168801539Y-70544279D01*
X168797506Y-70537459D01*
X168682541Y-70422494D01*
X168596352Y-70371522D01*
X168549419Y-70343766D01*
X168549418Y-70343766D01*
X168542596Y-70339731D01*
X168534985Y-70337520D01*
X168534983Y-70337519D01*
X168392644Y-70296166D01*
X168392645Y-70296166D01*
X168386466Y-70294371D01*
X168380059Y-70293867D01*
X168380055Y-70293866D01*
X168352444Y-70291693D01*
X168352438Y-70291693D01*
X168349989Y-70291500D01*
X168150122Y-70291500D01*
X167950012Y-70291501D01*
X167913534Y-70294371D01*
X167816730Y-70322495D01*
X167765017Y-70337519D01*
X167765015Y-70337520D01*
X167757404Y-70339731D01*
X167703647Y-70371523D01*
X167634834Y-70388982D01*
X167575370Y-70371522D01*
X167529220Y-70344229D01*
X167514783Y-70337981D01*
X167401395Y-70305039D01*
X167387295Y-70305079D01*
X167384000Y-70312349D01*
X167384000Y-70782458D01*
X167378997Y-70817610D01*
X167376166Y-70827353D01*
X167376165Y-70827360D01*
X167374371Y-70833534D01*
X167373867Y-70839941D01*
X167373866Y-70839945D01*
X167371693Y-70867556D01*
X167371500Y-70870011D01*
X167371500Y-70872480D01*
X167371501Y-71248000D01*
X167351499Y-71316120D01*
X167297844Y-71362613D01*
X167245501Y-71374000D01*
X167002000Y-71374000D01*
X166933879Y-71353998D01*
X166887386Y-71300342D01*
X166876000Y-71248000D01*
X166876000Y-70318100D01*
X166872027Y-70304569D01*
X166864129Y-70303434D01*
X166745217Y-70337981D01*
X166730778Y-70344230D01*
X166604595Y-70418854D01*
X166592159Y-70428501D01*
X166488501Y-70532159D01*
X166478856Y-70544593D01*
X166478745Y-70544781D01*
X166478619Y-70544899D01*
X166473998Y-70550856D01*
X166473037Y-70550111D01*
X166426852Y-70593234D01*
X166357002Y-70605940D01*
X166291371Y-70578865D01*
X166266661Y-70550349D01*
X166266403Y-70550549D01*
X166262716Y-70545797D01*
X166261839Y-70544784D01*
X166261544Y-70544285D01*
X166261539Y-70544279D01*
X166257506Y-70537459D01*
X166142541Y-70422494D01*
X166056352Y-70371522D01*
X166009419Y-70343766D01*
X166009418Y-70343766D01*
X166002596Y-70339731D01*
X165994985Y-70337520D01*
X165994983Y-70337519D01*
X165852644Y-70296166D01*
X165852645Y-70296166D01*
X165846466Y-70294371D01*
X165840059Y-70293867D01*
X165840055Y-70293866D01*
X165812444Y-70291693D01*
X165812438Y-70291693D01*
X165809989Y-70291500D01*
X165610122Y-70291500D01*
X165410012Y-70291501D01*
X165373534Y-70294371D01*
X165276730Y-70322495D01*
X165225017Y-70337519D01*
X165225015Y-70337520D01*
X165217404Y-70339731D01*
X165163647Y-70371523D01*
X165094834Y-70388982D01*
X165035370Y-70371522D01*
X164989220Y-70344229D01*
X164974783Y-70337981D01*
X164861395Y-70305039D01*
X164847295Y-70305079D01*
X164844000Y-70312349D01*
X164844000Y-70782458D01*
X164838997Y-70817610D01*
X164836166Y-70827353D01*
X164836165Y-70827360D01*
X164834371Y-70833534D01*
X164833867Y-70839941D01*
X164833866Y-70839945D01*
X164831693Y-70867556D01*
X164831500Y-70870011D01*
X164831500Y-70872480D01*
X164831501Y-71248000D01*
X164811499Y-71316120D01*
X164757844Y-71362613D01*
X164705501Y-71374000D01*
X164462000Y-71374000D01*
X164393879Y-71353998D01*
X164347386Y-71300342D01*
X164336000Y-71248000D01*
X164336000Y-70318100D01*
X164332027Y-70304569D01*
X164324129Y-70303434D01*
X164205217Y-70337981D01*
X164190778Y-70344230D01*
X164064595Y-70418854D01*
X164052159Y-70428501D01*
X163948501Y-70532159D01*
X163938856Y-70544593D01*
X163938745Y-70544781D01*
X163938619Y-70544899D01*
X163933998Y-70550856D01*
X163933037Y-70550111D01*
X163886852Y-70593234D01*
X163817002Y-70605940D01*
X163751371Y-70578865D01*
X163726661Y-70550349D01*
X163726403Y-70550549D01*
X163722716Y-70545797D01*
X163721839Y-70544784D01*
X163721544Y-70544285D01*
X163721539Y-70544279D01*
X163717506Y-70537459D01*
X163602541Y-70422494D01*
X163516352Y-70371522D01*
X163469419Y-70343766D01*
X163469418Y-70343766D01*
X163462596Y-70339731D01*
X163454985Y-70337520D01*
X163454983Y-70337519D01*
X163312644Y-70296166D01*
X163312645Y-70296166D01*
X163306466Y-70294371D01*
X163300059Y-70293867D01*
X163300055Y-70293866D01*
X163272444Y-70291693D01*
X163272438Y-70291693D01*
X163269989Y-70291500D01*
X163070122Y-70291500D01*
X162870012Y-70291501D01*
X162833534Y-70294371D01*
X162736730Y-70322495D01*
X162685017Y-70337519D01*
X162685015Y-70337520D01*
X162677404Y-70339731D01*
X162623647Y-70371523D01*
X162554834Y-70388982D01*
X162495370Y-70371522D01*
X162449220Y-70344229D01*
X162434783Y-70337981D01*
X162321395Y-70305039D01*
X162307295Y-70305079D01*
X162304000Y-70312349D01*
X162304000Y-70782458D01*
X162298997Y-70817610D01*
X162296166Y-70827353D01*
X162296165Y-70827360D01*
X162294371Y-70833534D01*
X162293867Y-70839941D01*
X162293866Y-70839945D01*
X162291693Y-70867556D01*
X162291500Y-70870011D01*
X162291500Y-70872480D01*
X162291501Y-71248000D01*
X162271499Y-71316120D01*
X162217844Y-71362613D01*
X162165501Y-71374000D01*
X161922000Y-71374000D01*
X161853879Y-71353998D01*
X161807386Y-71300342D01*
X161796000Y-71248000D01*
X161796000Y-70318100D01*
X161792027Y-70304569D01*
X161784129Y-70303434D01*
X161665217Y-70337981D01*
X161650778Y-70344230D01*
X161524595Y-70418854D01*
X161512159Y-70428501D01*
X161408501Y-70532159D01*
X161398856Y-70544593D01*
X161398745Y-70544781D01*
X161398619Y-70544899D01*
X161393998Y-70550856D01*
X161393037Y-70550111D01*
X161346852Y-70593234D01*
X161277002Y-70605940D01*
X161211371Y-70578865D01*
X161186661Y-70550349D01*
X161186403Y-70550549D01*
X161182716Y-70545797D01*
X161181839Y-70544784D01*
X161181544Y-70544285D01*
X161181539Y-70544279D01*
X161177506Y-70537459D01*
X161062541Y-70422494D01*
X160976352Y-70371522D01*
X160929419Y-70343766D01*
X160929418Y-70343766D01*
X160922596Y-70339731D01*
X160914985Y-70337520D01*
X160914983Y-70337519D01*
X160772644Y-70296166D01*
X160772645Y-70296166D01*
X160766466Y-70294371D01*
X160760059Y-70293867D01*
X160760055Y-70293866D01*
X160732444Y-70291693D01*
X160732438Y-70291693D01*
X160729989Y-70291500D01*
X160530122Y-70291500D01*
X160330012Y-70291501D01*
X160293534Y-70294371D01*
X160196730Y-70322495D01*
X160145017Y-70337519D01*
X160145015Y-70337520D01*
X160137404Y-70339731D01*
X160083647Y-70371523D01*
X160014834Y-70388982D01*
X159955370Y-70371522D01*
X159909220Y-70344229D01*
X159894783Y-70337981D01*
X159781395Y-70305039D01*
X159767295Y-70305079D01*
X159764000Y-70312349D01*
X159764000Y-70782458D01*
X159758997Y-70817610D01*
X159756166Y-70827353D01*
X159756165Y-70827360D01*
X159754371Y-70833534D01*
X159753867Y-70839941D01*
X159753866Y-70839945D01*
X159751693Y-70867556D01*
X159751500Y-70870011D01*
X159751500Y-70872480D01*
X159751501Y-71248000D01*
X159731499Y-71316120D01*
X159677844Y-71362613D01*
X159625501Y-71374000D01*
X159382000Y-71374000D01*
X159313879Y-71353998D01*
X159267386Y-71300342D01*
X159256000Y-71248000D01*
X159256000Y-70318100D01*
X159252027Y-70304569D01*
X159244129Y-70303434D01*
X159125217Y-70337981D01*
X159110778Y-70344230D01*
X158984595Y-70418854D01*
X158972159Y-70428501D01*
X158868501Y-70532159D01*
X158858856Y-70544593D01*
X158858745Y-70544781D01*
X158858619Y-70544899D01*
X158853998Y-70550856D01*
X158853037Y-70550111D01*
X158806852Y-70593234D01*
X158737002Y-70605940D01*
X158671371Y-70578865D01*
X158646661Y-70550349D01*
X158646403Y-70550549D01*
X158642716Y-70545797D01*
X158641839Y-70544784D01*
X158641544Y-70544285D01*
X158641539Y-70544279D01*
X158637506Y-70537459D01*
X158522541Y-70422494D01*
X158436352Y-70371522D01*
X158389419Y-70343766D01*
X158389418Y-70343766D01*
X158382596Y-70339731D01*
X158374985Y-70337520D01*
X158374983Y-70337519D01*
X158232644Y-70296166D01*
X158232645Y-70296166D01*
X158226466Y-70294371D01*
X158220059Y-70293867D01*
X158220055Y-70293866D01*
X158192444Y-70291693D01*
X158192438Y-70291693D01*
X158189989Y-70291500D01*
X157990122Y-70291500D01*
X157790012Y-70291501D01*
X157753534Y-70294371D01*
X157656730Y-70322495D01*
X157605017Y-70337519D01*
X157605015Y-70337520D01*
X157597404Y-70339731D01*
X157543647Y-70371523D01*
X157474834Y-70388982D01*
X157415370Y-70371522D01*
X157369220Y-70344229D01*
X157354783Y-70337981D01*
X157241395Y-70305039D01*
X157227295Y-70305079D01*
X157224000Y-70312349D01*
X157224000Y-70782458D01*
X157218997Y-70817610D01*
X157216166Y-70827353D01*
X157216165Y-70827360D01*
X157214371Y-70833534D01*
X157213867Y-70839941D01*
X157213866Y-70839945D01*
X157211693Y-70867556D01*
X157211500Y-70870011D01*
X157211500Y-70872480D01*
X157211501Y-71248000D01*
X157191499Y-71316120D01*
X157137844Y-71362613D01*
X157085501Y-71374000D01*
X156842000Y-71374000D01*
X156773879Y-71353998D01*
X156727386Y-71300342D01*
X156716000Y-71248000D01*
X156716000Y-70318100D01*
X156712027Y-70304569D01*
X156704129Y-70303434D01*
X156585217Y-70337981D01*
X156570778Y-70344230D01*
X156444595Y-70418854D01*
X156432159Y-70428501D01*
X156328501Y-70532159D01*
X156318856Y-70544593D01*
X156318745Y-70544781D01*
X156318619Y-70544899D01*
X156313998Y-70550856D01*
X156313037Y-70550111D01*
X156266852Y-70593234D01*
X156197002Y-70605940D01*
X156131371Y-70578865D01*
X156106661Y-70550349D01*
X156106403Y-70550549D01*
X156102716Y-70545797D01*
X156101839Y-70544784D01*
X156101544Y-70544285D01*
X156101539Y-70544279D01*
X156097506Y-70537459D01*
X155982541Y-70422494D01*
X155896352Y-70371522D01*
X155849419Y-70343766D01*
X155849418Y-70343766D01*
X155842596Y-70339731D01*
X155834985Y-70337520D01*
X155834983Y-70337519D01*
X155692644Y-70296166D01*
X155692645Y-70296166D01*
X155686466Y-70294371D01*
X155680059Y-70293867D01*
X155680055Y-70293866D01*
X155652444Y-70291693D01*
X155652438Y-70291693D01*
X155649989Y-70291500D01*
X155450122Y-70291500D01*
X155250012Y-70291501D01*
X155213534Y-70294371D01*
X155116730Y-70322495D01*
X155065017Y-70337519D01*
X155065015Y-70337520D01*
X155057404Y-70339731D01*
X155003647Y-70371523D01*
X154934834Y-70388982D01*
X154875370Y-70371522D01*
X154829220Y-70344229D01*
X154814783Y-70337981D01*
X154701395Y-70305039D01*
X154687295Y-70305079D01*
X154684000Y-70312349D01*
X154684000Y-70782458D01*
X154678997Y-70817610D01*
X154676166Y-70827353D01*
X154676165Y-70827360D01*
X154674371Y-70833534D01*
X154673867Y-70839941D01*
X154673866Y-70839945D01*
X154671693Y-70867556D01*
X154671500Y-70870011D01*
X154671500Y-70872480D01*
X154671501Y-71248000D01*
X154651499Y-71316120D01*
X154597844Y-71362613D01*
X154545501Y-71374000D01*
X154302000Y-71374000D01*
X154233879Y-71353998D01*
X154187386Y-71300342D01*
X154176000Y-71248000D01*
X154176000Y-70318100D01*
X154172027Y-70304569D01*
X154164129Y-70303434D01*
X154045217Y-70337981D01*
X154030778Y-70344230D01*
X153904595Y-70418854D01*
X153892159Y-70428501D01*
X153788501Y-70532159D01*
X153778856Y-70544593D01*
X153778745Y-70544781D01*
X153778619Y-70544899D01*
X153773998Y-70550856D01*
X153773037Y-70550111D01*
X153726852Y-70593234D01*
X153657002Y-70605940D01*
X153591371Y-70578865D01*
X153566661Y-70550349D01*
X153566403Y-70550549D01*
X153562716Y-70545797D01*
X153561839Y-70544784D01*
X153561544Y-70544285D01*
X153561539Y-70544279D01*
X153557506Y-70537459D01*
X153442541Y-70422494D01*
X153356352Y-70371522D01*
X153309419Y-70343766D01*
X153309418Y-70343766D01*
X153302596Y-70339731D01*
X153294985Y-70337520D01*
X153294983Y-70337519D01*
X153152644Y-70296166D01*
X153152645Y-70296166D01*
X153146466Y-70294371D01*
X153140059Y-70293867D01*
X153140055Y-70293866D01*
X153112444Y-70291693D01*
X153112438Y-70291693D01*
X153109989Y-70291500D01*
X152910122Y-70291500D01*
X152710012Y-70291501D01*
X152673534Y-70294371D01*
X152576730Y-70322495D01*
X152525017Y-70337519D01*
X152525015Y-70337520D01*
X152517404Y-70339731D01*
X152463647Y-70371523D01*
X152394834Y-70388982D01*
X152335370Y-70371522D01*
X152289220Y-70344229D01*
X152274783Y-70337981D01*
X152161395Y-70305039D01*
X152147295Y-70305079D01*
X152144000Y-70312349D01*
X152144000Y-70782458D01*
X152138997Y-70817610D01*
X152136166Y-70827353D01*
X152136165Y-70827360D01*
X152134371Y-70833534D01*
X152133867Y-70839941D01*
X152133866Y-70839945D01*
X152131693Y-70867556D01*
X152131500Y-70870011D01*
X152131500Y-70872480D01*
X152131501Y-71248000D01*
X152111499Y-71316120D01*
X152057844Y-71362613D01*
X152005501Y-71374000D01*
X151762000Y-71374000D01*
X151693879Y-71353998D01*
X151647386Y-71300342D01*
X151636000Y-71248000D01*
X151636000Y-70318100D01*
X151632027Y-70304569D01*
X151624129Y-70303434D01*
X151505217Y-70337981D01*
X151490778Y-70344230D01*
X151364595Y-70418854D01*
X151352159Y-70428501D01*
X151248501Y-70532159D01*
X151238856Y-70544593D01*
X151238745Y-70544781D01*
X151238619Y-70544899D01*
X151233998Y-70550856D01*
X151233037Y-70550111D01*
X151186852Y-70593234D01*
X151117002Y-70605940D01*
X151051371Y-70578865D01*
X151026661Y-70550349D01*
X151026403Y-70550549D01*
X151022716Y-70545797D01*
X151021839Y-70544784D01*
X151021544Y-70544285D01*
X151021539Y-70544279D01*
X151017506Y-70537459D01*
X150902541Y-70422494D01*
X150816352Y-70371522D01*
X150769419Y-70343766D01*
X150769418Y-70343766D01*
X150762596Y-70339731D01*
X150754985Y-70337520D01*
X150754983Y-70337519D01*
X150612644Y-70296166D01*
X150612645Y-70296166D01*
X150606466Y-70294371D01*
X150600059Y-70293867D01*
X150600055Y-70293866D01*
X150572444Y-70291693D01*
X150572438Y-70291693D01*
X150569989Y-70291500D01*
X150370122Y-70291500D01*
X150170012Y-70291501D01*
X150133534Y-70294371D01*
X150036730Y-70322495D01*
X149985017Y-70337519D01*
X149985015Y-70337520D01*
X149977404Y-70339731D01*
X149923647Y-70371523D01*
X149854834Y-70388982D01*
X149795370Y-70371522D01*
X149749220Y-70344229D01*
X149734783Y-70337981D01*
X149621395Y-70305039D01*
X149607295Y-70305079D01*
X149604000Y-70312349D01*
X149604000Y-70782458D01*
X149598997Y-70817610D01*
X149596166Y-70827353D01*
X149596165Y-70827360D01*
X149594371Y-70833534D01*
X149593867Y-70839941D01*
X149593866Y-70839945D01*
X149591693Y-70867556D01*
X149591500Y-70870011D01*
X149591500Y-70872480D01*
X149591501Y-71248000D01*
X149571499Y-71316120D01*
X149517844Y-71362613D01*
X149465501Y-71374000D01*
X148590434Y-71374000D01*
X148575639Y-71378344D01*
X148573579Y-71390003D01*
X148574363Y-71399977D01*
X148576662Y-71412564D01*
X148617981Y-71554783D01*
X148624230Y-71569222D01*
X148698854Y-71695405D01*
X148708501Y-71707841D01*
X148812159Y-71811499D01*
X148824595Y-71821146D01*
X148950778Y-71895770D01*
X148965215Y-71902018D01*
X149040921Y-71924013D01*
X149100756Y-71962226D01*
X149130433Y-72026723D01*
X149120529Y-72097025D01*
X149094940Y-72134028D01*
X149029136Y-72199947D01*
X148940151Y-72344308D01*
X148886762Y-72505269D01*
X148876500Y-72605428D01*
X148876500Y-73139572D01*
X148887022Y-73240982D01*
X148940692Y-73401849D01*
X149029929Y-73546055D01*
X149054805Y-73570887D01*
X149088884Y-73633168D01*
X149083882Y-73703988D01*
X149054960Y-73749078D01*
X149029136Y-73774947D01*
X148940151Y-73919308D01*
X148937846Y-73926256D01*
X148937846Y-73926257D01*
X148911914Y-74004440D01*
X148886762Y-74080269D01*
X148876500Y-74180428D01*
X148876500Y-74714572D01*
X148887022Y-74815982D01*
X148940692Y-74976849D01*
X149029929Y-75121055D01*
X149149947Y-75240864D01*
X149156175Y-75244703D01*
X149156178Y-75244705D01*
X149228116Y-75289048D01*
X149275609Y-75341820D01*
X149288000Y-75396308D01*
X149288000Y-76534353D01*
X149279393Y-76580123D01*
X149241896Y-76676298D01*
X149240905Y-76683825D01*
X149228438Y-76778522D01*
X149221882Y-76828317D01*
X149238708Y-76980723D01*
X149241317Y-76987854D01*
X149241318Y-76987856D01*
X149250897Y-77014031D01*
X149291402Y-77124715D01*
X149295640Y-77131021D01*
X149295640Y-77131022D01*
X149372681Y-77245673D01*
X149372684Y-77245676D01*
X149376921Y-77251982D01*
X149393371Y-77266950D01*
X149465458Y-77332545D01*
X149502380Y-77393185D01*
X149500657Y-77464161D01*
X149463488Y-77520686D01*
X149385760Y-77588492D01*
X149297594Y-77713940D01*
X149241896Y-77856798D01*
X149240905Y-77864325D01*
X149232299Y-77929696D01*
X149221882Y-78008817D01*
X149238708Y-78161223D01*
X149241317Y-78168354D01*
X149241318Y-78168356D01*
X149280326Y-78274949D01*
X149288000Y-78318250D01*
X149288000Y-79543677D01*
X149267998Y-79611798D01*
X149228302Y-79650822D01*
X149148945Y-79699929D01*
X149029136Y-79819947D01*
X149025296Y-79826177D01*
X149025295Y-79826178D01*
X149021754Y-79831923D01*
X148940151Y-79964308D01*
X148937846Y-79971256D01*
X148937846Y-79971257D01*
X148928469Y-79999529D01*
X148886762Y-80125269D01*
X148876500Y-80225428D01*
X148876500Y-80759572D01*
X148887022Y-80860982D01*
X148940692Y-81021849D01*
X149029929Y-81166055D01*
X149054805Y-81190887D01*
X149088884Y-81253168D01*
X149083882Y-81323988D01*
X149054960Y-81369078D01*
X149029136Y-81394947D01*
X148940151Y-81539308D01*
X148886762Y-81700269D01*
X148876500Y-81800428D01*
X148876500Y-82334572D01*
X148887022Y-82435982D01*
X148940692Y-82596849D01*
X149029929Y-82741055D01*
X149035107Y-82746224D01*
X149094800Y-82805813D01*
X149128879Y-82868095D01*
X149123876Y-82938916D01*
X149081379Y-82995788D01*
X149040935Y-83015983D01*
X148965217Y-83037981D01*
X148950778Y-83044230D01*
X148824595Y-83118854D01*
X148812159Y-83128501D01*
X148708501Y-83232159D01*
X148698854Y-83244595D01*
X148624230Y-83370778D01*
X148617981Y-83385217D01*
X148576662Y-83527436D01*
X148574363Y-83540023D01*
X148573740Y-83547943D01*
X148576910Y-83563030D01*
X148588374Y-83566000D01*
X149273309Y-83566000D01*
X149341430Y-83586002D01*
X149373271Y-83615296D01*
X149403319Y-83654455D01*
X149447014Y-83711400D01*
X149447019Y-83711405D01*
X149452045Y-83717955D01*
X149458595Y-83722981D01*
X149458598Y-83722984D01*
X149475495Y-83735949D01*
X149487886Y-83746816D01*
X149554596Y-83813526D01*
X149588622Y-83875838D01*
X149591501Y-83902621D01*
X149591501Y-84069988D01*
X149594371Y-84106466D01*
X149596167Y-84112648D01*
X149596168Y-84112653D01*
X149598997Y-84122390D01*
X149604000Y-84157542D01*
X149604000Y-84621900D01*
X149607973Y-84635431D01*
X149615871Y-84636566D01*
X149734783Y-84602019D01*
X149749220Y-84595771D01*
X149795370Y-84568478D01*
X149864187Y-84551018D01*
X149923646Y-84568477D01*
X149977404Y-84600269D01*
X149985015Y-84602480D01*
X149985017Y-84602481D01*
X150051858Y-84621900D01*
X150133534Y-84645629D01*
X150139941Y-84646133D01*
X150139945Y-84646134D01*
X150167556Y-84648307D01*
X150167562Y-84648307D01*
X150170011Y-84648500D01*
X150369878Y-84648500D01*
X150569988Y-84648499D01*
X150606466Y-84645629D01*
X150703270Y-84617505D01*
X150754983Y-84602481D01*
X150754985Y-84602480D01*
X150762596Y-84600269D01*
X150770204Y-84595770D01*
X150895720Y-84521540D01*
X150902541Y-84517506D01*
X151017506Y-84402541D01*
X151021540Y-84395720D01*
X151021544Y-84395715D01*
X151021839Y-84395216D01*
X151022172Y-84394905D01*
X151026403Y-84389451D01*
X151027283Y-84390133D01*
X151073733Y-84346764D01*
X151143583Y-84334060D01*
X151209214Y-84361137D01*
X151233689Y-84389384D01*
X151233998Y-84389144D01*
X151238414Y-84394837D01*
X151238745Y-84395219D01*
X151238856Y-84395407D01*
X151248501Y-84407841D01*
X151352159Y-84511499D01*
X151364595Y-84521146D01*
X151490778Y-84595770D01*
X151505217Y-84602019D01*
X151618605Y-84634961D01*
X151632705Y-84634921D01*
X151636000Y-84627651D01*
X151636000Y-83692000D01*
X151656002Y-83623879D01*
X151709658Y-83577386D01*
X151762000Y-83566000D01*
X151813309Y-83566000D01*
X151881430Y-83586002D01*
X151913271Y-83615296D01*
X151943319Y-83654455D01*
X151987014Y-83711400D01*
X151987019Y-83711405D01*
X151992045Y-83717955D01*
X151998595Y-83722981D01*
X151998598Y-83722984D01*
X152015495Y-83735949D01*
X152027886Y-83746816D01*
X152094596Y-83813526D01*
X152128622Y-83875838D01*
X152131501Y-83902621D01*
X152131501Y-84069988D01*
X152134371Y-84106466D01*
X152136167Y-84112648D01*
X152136168Y-84112653D01*
X152138997Y-84122390D01*
X152144000Y-84157542D01*
X152144000Y-84621900D01*
X152147973Y-84635431D01*
X152155871Y-84636566D01*
X152274783Y-84602019D01*
X152289220Y-84595771D01*
X152335370Y-84568478D01*
X152404187Y-84551018D01*
X152463646Y-84568477D01*
X152517404Y-84600269D01*
X152525015Y-84602480D01*
X152525017Y-84602481D01*
X152591858Y-84621900D01*
X152673534Y-84645629D01*
X152679941Y-84646133D01*
X152679945Y-84646134D01*
X152707556Y-84648307D01*
X152707562Y-84648307D01*
X152710011Y-84648500D01*
X152909878Y-84648500D01*
X153109988Y-84648499D01*
X153146466Y-84645629D01*
X153243270Y-84617505D01*
X153294983Y-84602481D01*
X153294985Y-84602480D01*
X153302596Y-84600269D01*
X153310204Y-84595770D01*
X153435720Y-84521540D01*
X153442541Y-84517506D01*
X153557506Y-84402541D01*
X153561540Y-84395720D01*
X153561544Y-84395715D01*
X153561839Y-84395216D01*
X153562172Y-84394905D01*
X153566403Y-84389451D01*
X153567283Y-84390133D01*
X153613733Y-84346764D01*
X153683583Y-84334060D01*
X153749214Y-84361137D01*
X153773689Y-84389384D01*
X153773998Y-84389144D01*
X153778414Y-84394837D01*
X153778745Y-84395219D01*
X153778856Y-84395407D01*
X153788501Y-84407841D01*
X153892159Y-84511499D01*
X153904595Y-84521146D01*
X154030778Y-84595770D01*
X154045217Y-84602019D01*
X154158605Y-84634961D01*
X154172705Y-84634921D01*
X154176000Y-84627651D01*
X154176000Y-83692000D01*
X154196002Y-83623879D01*
X154249658Y-83577386D01*
X154302000Y-83566000D01*
X154353309Y-83566000D01*
X154421430Y-83586002D01*
X154453271Y-83615296D01*
X154483319Y-83654455D01*
X154527014Y-83711400D01*
X154527019Y-83711405D01*
X154532045Y-83717955D01*
X154538595Y-83722981D01*
X154538598Y-83722984D01*
X154555495Y-83735949D01*
X154567886Y-83746816D01*
X154634596Y-83813526D01*
X154668622Y-83875838D01*
X154671501Y-83902621D01*
X154671501Y-84069988D01*
X154674371Y-84106466D01*
X154676167Y-84112648D01*
X154676168Y-84112653D01*
X154678997Y-84122390D01*
X154684000Y-84157542D01*
X154684000Y-84621900D01*
X154687973Y-84635431D01*
X154695871Y-84636566D01*
X154814783Y-84602019D01*
X154829220Y-84595771D01*
X154875370Y-84568478D01*
X154944187Y-84551018D01*
X155003646Y-84568477D01*
X155057404Y-84600269D01*
X155065015Y-84602480D01*
X155065017Y-84602481D01*
X155131858Y-84621900D01*
X155213534Y-84645629D01*
X155219941Y-84646133D01*
X155219945Y-84646134D01*
X155247556Y-84648307D01*
X155247562Y-84648307D01*
X155250011Y-84648500D01*
X155449878Y-84648500D01*
X155649988Y-84648499D01*
X155686466Y-84645629D01*
X155783270Y-84617505D01*
X155834983Y-84602481D01*
X155834985Y-84602480D01*
X155842596Y-84600269D01*
X155850204Y-84595770D01*
X155975720Y-84521540D01*
X155982541Y-84517506D01*
X156097506Y-84402541D01*
X156101540Y-84395720D01*
X156101544Y-84395715D01*
X156101839Y-84395216D01*
X156102172Y-84394905D01*
X156106403Y-84389451D01*
X156107283Y-84390133D01*
X156153733Y-84346764D01*
X156223583Y-84334060D01*
X156289214Y-84361137D01*
X156313689Y-84389384D01*
X156313998Y-84389144D01*
X156318414Y-84394837D01*
X156318745Y-84395219D01*
X156318856Y-84395407D01*
X156328501Y-84407841D01*
X156432159Y-84511499D01*
X156444595Y-84521146D01*
X156570778Y-84595770D01*
X156585217Y-84602019D01*
X156698605Y-84634961D01*
X156712705Y-84634921D01*
X156716000Y-84627651D01*
X156716000Y-83692000D01*
X156736002Y-83623879D01*
X156789658Y-83577386D01*
X156842000Y-83566000D01*
X156893309Y-83566000D01*
X156961430Y-83586002D01*
X156993271Y-83615296D01*
X157023319Y-83654455D01*
X157067014Y-83711400D01*
X157067019Y-83711405D01*
X157072045Y-83717955D01*
X157078595Y-83722981D01*
X157078598Y-83722984D01*
X157095495Y-83735949D01*
X157107886Y-83746816D01*
X157174596Y-83813526D01*
X157208622Y-83875838D01*
X157211501Y-83902621D01*
X157211501Y-84069988D01*
X157214371Y-84106466D01*
X157216167Y-84112648D01*
X157216168Y-84112653D01*
X157218997Y-84122390D01*
X157224000Y-84157542D01*
X157224000Y-84621900D01*
X157227973Y-84635431D01*
X157235871Y-84636566D01*
X157354783Y-84602019D01*
X157369220Y-84595771D01*
X157415370Y-84568478D01*
X157484187Y-84551018D01*
X157543646Y-84568477D01*
X157597404Y-84600269D01*
X157605015Y-84602480D01*
X157605017Y-84602481D01*
X157671858Y-84621900D01*
X157753534Y-84645629D01*
X157759941Y-84646133D01*
X157759945Y-84646134D01*
X157787556Y-84648307D01*
X157787562Y-84648307D01*
X157790011Y-84648500D01*
X157989878Y-84648500D01*
X158189988Y-84648499D01*
X158226466Y-84645629D01*
X158323270Y-84617505D01*
X158374983Y-84602481D01*
X158374985Y-84602480D01*
X158382596Y-84600269D01*
X158390204Y-84595770D01*
X158515720Y-84521540D01*
X158522541Y-84517506D01*
X158637506Y-84402541D01*
X158641540Y-84395720D01*
X158641544Y-84395715D01*
X158641839Y-84395216D01*
X158642172Y-84394905D01*
X158646403Y-84389451D01*
X158647283Y-84390133D01*
X158693733Y-84346764D01*
X158763583Y-84334060D01*
X158829214Y-84361137D01*
X158853689Y-84389384D01*
X158853998Y-84389144D01*
X158858414Y-84394837D01*
X158858745Y-84395219D01*
X158858856Y-84395407D01*
X158868501Y-84407841D01*
X158972159Y-84511499D01*
X158984595Y-84521146D01*
X159110778Y-84595770D01*
X159125217Y-84602019D01*
X159238605Y-84634961D01*
X159252705Y-84634921D01*
X159256000Y-84627651D01*
X159256000Y-83692000D01*
X159276002Y-83623879D01*
X159329658Y-83577386D01*
X159382000Y-83566000D01*
X159433309Y-83566000D01*
X159501430Y-83586002D01*
X159533271Y-83615296D01*
X159563319Y-83654455D01*
X159607014Y-83711400D01*
X159607019Y-83711405D01*
X159612045Y-83717955D01*
X159618595Y-83722981D01*
X159618598Y-83722984D01*
X159635495Y-83735949D01*
X159647886Y-83746816D01*
X159714596Y-83813526D01*
X159748622Y-83875838D01*
X159751501Y-83902621D01*
X159751501Y-84069988D01*
X159754371Y-84106466D01*
X159756167Y-84112648D01*
X159756168Y-84112653D01*
X159758997Y-84122390D01*
X159764000Y-84157542D01*
X159764000Y-84621900D01*
X159767973Y-84635431D01*
X159775871Y-84636566D01*
X159894783Y-84602019D01*
X159909220Y-84595771D01*
X159955370Y-84568478D01*
X160024187Y-84551018D01*
X160083646Y-84568477D01*
X160137404Y-84600269D01*
X160145015Y-84602480D01*
X160145017Y-84602481D01*
X160211858Y-84621900D01*
X160293534Y-84645629D01*
X160299941Y-84646133D01*
X160299945Y-84646134D01*
X160327556Y-84648307D01*
X160327562Y-84648307D01*
X160330011Y-84648500D01*
X160529878Y-84648500D01*
X160729988Y-84648499D01*
X160766466Y-84645629D01*
X160863270Y-84617505D01*
X160914983Y-84602481D01*
X160914985Y-84602480D01*
X160922596Y-84600269D01*
X160930204Y-84595770D01*
X161055720Y-84521540D01*
X161062541Y-84517506D01*
X161177506Y-84402541D01*
X161181540Y-84395720D01*
X161181544Y-84395715D01*
X161181839Y-84395216D01*
X161182172Y-84394905D01*
X161186403Y-84389451D01*
X161187283Y-84390133D01*
X161233733Y-84346764D01*
X161303583Y-84334060D01*
X161369214Y-84361137D01*
X161393689Y-84389384D01*
X161393998Y-84389144D01*
X161398414Y-84394837D01*
X161398745Y-84395219D01*
X161398856Y-84395407D01*
X161408501Y-84407841D01*
X161512159Y-84511499D01*
X161524595Y-84521146D01*
X161650778Y-84595770D01*
X161665217Y-84602019D01*
X161778605Y-84634961D01*
X161792705Y-84634921D01*
X161796000Y-84627651D01*
X161796000Y-83692000D01*
X161816002Y-83623879D01*
X161869658Y-83577386D01*
X161922000Y-83566000D01*
X161973309Y-83566000D01*
X162041430Y-83586002D01*
X162073271Y-83615296D01*
X162103319Y-83654455D01*
X162147014Y-83711400D01*
X162147019Y-83711405D01*
X162152045Y-83717955D01*
X162158595Y-83722981D01*
X162158598Y-83722984D01*
X162175495Y-83735949D01*
X162187886Y-83746816D01*
X162254596Y-83813526D01*
X162288622Y-83875838D01*
X162291501Y-83902621D01*
X162291501Y-84069988D01*
X162294371Y-84106466D01*
X162296167Y-84112648D01*
X162296168Y-84112653D01*
X162298997Y-84122390D01*
X162304000Y-84157542D01*
X162304000Y-84621900D01*
X162307973Y-84635431D01*
X162315871Y-84636566D01*
X162434783Y-84602019D01*
X162449220Y-84595771D01*
X162495370Y-84568478D01*
X162564187Y-84551018D01*
X162623646Y-84568477D01*
X162677404Y-84600269D01*
X162685015Y-84602480D01*
X162685017Y-84602481D01*
X162751858Y-84621900D01*
X162833534Y-84645629D01*
X162839941Y-84646133D01*
X162839945Y-84646134D01*
X162867556Y-84648307D01*
X162867562Y-84648307D01*
X162870011Y-84648500D01*
X163069878Y-84648500D01*
X163269988Y-84648499D01*
X163306466Y-84645629D01*
X163403270Y-84617505D01*
X163454983Y-84602481D01*
X163454985Y-84602480D01*
X163462596Y-84600269D01*
X163470204Y-84595770D01*
X163595720Y-84521540D01*
X163602541Y-84517506D01*
X163717506Y-84402541D01*
X163721540Y-84395720D01*
X163721544Y-84395715D01*
X163721839Y-84395216D01*
X163722172Y-84394905D01*
X163726403Y-84389451D01*
X163727283Y-84390133D01*
X163773733Y-84346764D01*
X163843583Y-84334060D01*
X163909214Y-84361137D01*
X163933689Y-84389384D01*
X163933998Y-84389144D01*
X163938414Y-84394837D01*
X163938745Y-84395219D01*
X163938856Y-84395407D01*
X163948501Y-84407841D01*
X164052159Y-84511499D01*
X164064595Y-84521146D01*
X164190778Y-84595770D01*
X164205217Y-84602019D01*
X164318605Y-84634961D01*
X164332705Y-84634921D01*
X164336000Y-84627651D01*
X164336000Y-83692000D01*
X164356002Y-83623879D01*
X164409658Y-83577386D01*
X164462000Y-83566000D01*
X164513309Y-83566000D01*
X164581430Y-83586002D01*
X164613271Y-83615296D01*
X164643319Y-83654455D01*
X164687014Y-83711400D01*
X164687019Y-83711405D01*
X164692045Y-83717955D01*
X164698595Y-83722981D01*
X164698598Y-83722984D01*
X164715495Y-83735949D01*
X164727886Y-83746816D01*
X164794596Y-83813526D01*
X164828622Y-83875838D01*
X164831501Y-83902621D01*
X164831501Y-84069988D01*
X164834371Y-84106466D01*
X164836167Y-84112648D01*
X164836168Y-84112653D01*
X164838997Y-84122390D01*
X164844000Y-84157542D01*
X164844000Y-84621900D01*
X164847973Y-84635431D01*
X164855871Y-84636566D01*
X164974783Y-84602019D01*
X164989220Y-84595771D01*
X165035370Y-84568478D01*
X165104187Y-84551018D01*
X165163646Y-84568477D01*
X165217404Y-84600269D01*
X165225015Y-84602480D01*
X165225017Y-84602481D01*
X165291858Y-84621900D01*
X165373534Y-84645629D01*
X165379941Y-84646133D01*
X165379945Y-84646134D01*
X165407556Y-84648307D01*
X165407562Y-84648307D01*
X165410011Y-84648500D01*
X165609878Y-84648500D01*
X165809988Y-84648499D01*
X165846466Y-84645629D01*
X165943270Y-84617505D01*
X165994983Y-84602481D01*
X165994985Y-84602480D01*
X166002596Y-84600269D01*
X166010204Y-84595770D01*
X166135720Y-84521540D01*
X166142541Y-84517506D01*
X166257506Y-84402541D01*
X166261540Y-84395720D01*
X166261544Y-84395715D01*
X166261839Y-84395216D01*
X166262172Y-84394905D01*
X166266403Y-84389451D01*
X166267283Y-84390133D01*
X166313733Y-84346764D01*
X166383583Y-84334060D01*
X166449214Y-84361137D01*
X166473689Y-84389384D01*
X166473998Y-84389144D01*
X166478414Y-84394837D01*
X166478745Y-84395219D01*
X166478856Y-84395407D01*
X166488501Y-84407841D01*
X166592159Y-84511499D01*
X166604595Y-84521146D01*
X166730778Y-84595770D01*
X166745217Y-84602019D01*
X166858605Y-84634961D01*
X166872705Y-84634921D01*
X166876000Y-84627651D01*
X166876000Y-83692000D01*
X166896002Y-83623879D01*
X166949658Y-83577386D01*
X167002000Y-83566000D01*
X167053309Y-83566000D01*
X167121430Y-83586002D01*
X167153271Y-83615296D01*
X167183319Y-83654455D01*
X167227014Y-83711400D01*
X167227019Y-83711405D01*
X167232045Y-83717955D01*
X167238595Y-83722981D01*
X167238598Y-83722984D01*
X167255495Y-83735949D01*
X167267886Y-83746816D01*
X167334596Y-83813526D01*
X167368622Y-83875838D01*
X167371501Y-83902621D01*
X167371501Y-84069988D01*
X167374371Y-84106466D01*
X167376167Y-84112648D01*
X167376168Y-84112653D01*
X167378997Y-84122390D01*
X167384000Y-84157542D01*
X167384000Y-84621900D01*
X167387973Y-84635431D01*
X167395871Y-84636566D01*
X167514783Y-84602019D01*
X167529220Y-84595771D01*
X167575370Y-84568478D01*
X167644187Y-84551018D01*
X167703646Y-84568477D01*
X167757404Y-84600269D01*
X167765015Y-84602480D01*
X167765017Y-84602481D01*
X167831858Y-84621900D01*
X167913534Y-84645629D01*
X167919941Y-84646133D01*
X167919945Y-84646134D01*
X167947556Y-84648307D01*
X167947562Y-84648307D01*
X167950011Y-84648500D01*
X168149878Y-84648500D01*
X168349988Y-84648499D01*
X168386466Y-84645629D01*
X168483270Y-84617505D01*
X168534983Y-84602481D01*
X168534985Y-84602480D01*
X168542596Y-84600269D01*
X168550204Y-84595770D01*
X168675720Y-84521540D01*
X168682541Y-84517506D01*
X168797506Y-84402541D01*
X168822586Y-84360133D01*
X168874479Y-84311680D01*
X168944330Y-84298975D01*
X169009961Y-84326050D01*
X169022657Y-84338967D01*
X169022892Y-84338732D01*
X169132159Y-84447999D01*
X169144595Y-84457646D01*
X169270778Y-84532270D01*
X169285217Y-84538519D01*
X169398605Y-84571461D01*
X169412705Y-84571421D01*
X169416000Y-84564151D01*
X169416000Y-83628500D01*
X169436002Y-83560379D01*
X169489658Y-83513886D01*
X169542000Y-83502500D01*
X169593309Y-83502500D01*
X169661430Y-83522502D01*
X169693271Y-83551796D01*
X169707248Y-83570011D01*
X169767014Y-83647900D01*
X169767019Y-83647905D01*
X169772045Y-83654455D01*
X169778595Y-83659481D01*
X169778598Y-83659484D01*
X169795495Y-83672449D01*
X169807886Y-83683316D01*
X169874596Y-83750026D01*
X169908622Y-83812338D01*
X169911501Y-83839121D01*
X169911501Y-84006488D01*
X169914371Y-84042966D01*
X169916167Y-84049148D01*
X169916168Y-84049153D01*
X169918997Y-84058890D01*
X169924000Y-84094042D01*
X169924000Y-84558400D01*
X169927973Y-84571931D01*
X169935871Y-84573066D01*
X170054783Y-84538519D01*
X170069220Y-84532271D01*
X170115370Y-84504978D01*
X170184187Y-84487518D01*
X170243646Y-84504977D01*
X170297404Y-84536769D01*
X170305015Y-84538980D01*
X170305017Y-84538981D01*
X170346449Y-84551018D01*
X170453534Y-84582129D01*
X170459941Y-84582633D01*
X170459945Y-84582634D01*
X170487556Y-84584807D01*
X170487562Y-84584807D01*
X170490011Y-84585000D01*
X170689878Y-84585000D01*
X170889988Y-84584999D01*
X170926466Y-84582129D01*
X171033551Y-84551018D01*
X171074983Y-84538981D01*
X171074985Y-84538980D01*
X171082596Y-84536769D01*
X171090204Y-84532270D01*
X171215720Y-84458040D01*
X171222541Y-84454006D01*
X171337506Y-84339041D01*
X171342045Y-84331366D01*
X171342616Y-84330833D01*
X171346403Y-84325951D01*
X171347190Y-84326562D01*
X171393938Y-84282912D01*
X171463788Y-84270206D01*
X171529419Y-84297280D01*
X171569994Y-84355540D01*
X171576500Y-84395503D01*
X171576500Y-85590754D01*
X171556498Y-85658875D01*
X171502842Y-85705368D01*
X171432568Y-85715472D01*
X171367988Y-85685978D01*
X171344708Y-85659194D01*
X171262822Y-85532617D01*
X171262820Y-85532614D01*
X171260014Y-85528277D01*
X171109670Y-85363051D01*
X171105619Y-85359852D01*
X171105615Y-85359848D01*
X170938414Y-85227800D01*
X170938410Y-85227798D01*
X170934359Y-85224598D01*
X170738789Y-85116638D01*
X170733920Y-85114914D01*
X170733916Y-85114912D01*
X170533087Y-85043795D01*
X170533083Y-85043794D01*
X170528212Y-85042069D01*
X170523119Y-85041162D01*
X170523116Y-85041161D01*
X170313373Y-85003800D01*
X170313367Y-85003799D01*
X170308284Y-85002894D01*
X170234452Y-85001992D01*
X170090081Y-85000228D01*
X170090079Y-85000228D01*
X170084911Y-85000165D01*
X169864091Y-85033955D01*
X169651756Y-85103357D01*
X169453607Y-85206507D01*
X169449474Y-85209610D01*
X169449471Y-85209612D01*
X169279100Y-85337530D01*
X169274965Y-85340635D01*
X169271393Y-85344373D01*
X169163729Y-85457037D01*
X169120629Y-85502138D01*
X169013201Y-85659621D01*
X168958293Y-85704621D01*
X168887768Y-85712792D01*
X168824021Y-85681538D01*
X168803324Y-85657054D01*
X168722822Y-85532617D01*
X168722820Y-85532614D01*
X168720014Y-85528277D01*
X168569670Y-85363051D01*
X168565619Y-85359852D01*
X168565615Y-85359848D01*
X168398414Y-85227800D01*
X168398410Y-85227798D01*
X168394359Y-85224598D01*
X168198789Y-85116638D01*
X168193920Y-85114914D01*
X168193916Y-85114912D01*
X167993087Y-85043795D01*
X167993083Y-85043794D01*
X167988212Y-85042069D01*
X167983119Y-85041162D01*
X167983116Y-85041161D01*
X167773373Y-85003800D01*
X167773367Y-85003799D01*
X167768284Y-85002894D01*
X167694452Y-85001992D01*
X167550081Y-85000228D01*
X167550079Y-85000228D01*
X167544911Y-85000165D01*
X167324091Y-85033955D01*
X167111756Y-85103357D01*
X166913607Y-85206507D01*
X166909474Y-85209610D01*
X166909471Y-85209612D01*
X166739100Y-85337530D01*
X166734965Y-85340635D01*
X166731393Y-85344373D01*
X166623729Y-85457037D01*
X166580629Y-85502138D01*
X166473201Y-85659621D01*
X166418293Y-85704621D01*
X166347768Y-85712792D01*
X166284021Y-85681538D01*
X166263324Y-85657054D01*
X166182822Y-85532617D01*
X166182820Y-85532614D01*
X166180014Y-85528277D01*
X166029670Y-85363051D01*
X166025619Y-85359852D01*
X166025615Y-85359848D01*
X165858414Y-85227800D01*
X165858410Y-85227798D01*
X165854359Y-85224598D01*
X165658789Y-85116638D01*
X165653920Y-85114914D01*
X165653916Y-85114912D01*
X165453087Y-85043795D01*
X165453083Y-85043794D01*
X165448212Y-85042069D01*
X165443119Y-85041162D01*
X165443116Y-85041161D01*
X165233373Y-85003800D01*
X165233367Y-85003799D01*
X165228284Y-85002894D01*
X165154452Y-85001992D01*
X165010081Y-85000228D01*
X165010079Y-85000228D01*
X165004911Y-85000165D01*
X164784091Y-85033955D01*
X164571756Y-85103357D01*
X164373607Y-85206507D01*
X164369474Y-85209610D01*
X164369471Y-85209612D01*
X164199100Y-85337530D01*
X164194965Y-85340635D01*
X164191393Y-85344373D01*
X164083729Y-85457037D01*
X164040629Y-85502138D01*
X163933201Y-85659621D01*
X163878293Y-85704621D01*
X163807768Y-85712792D01*
X163744021Y-85681538D01*
X163723324Y-85657054D01*
X163642822Y-85532617D01*
X163642820Y-85532614D01*
X163640014Y-85528277D01*
X163489670Y-85363051D01*
X163485619Y-85359852D01*
X163485615Y-85359848D01*
X163318414Y-85227800D01*
X163318410Y-85227798D01*
X163314359Y-85224598D01*
X163118789Y-85116638D01*
X163113920Y-85114914D01*
X163113916Y-85114912D01*
X162913087Y-85043795D01*
X162913083Y-85043794D01*
X162908212Y-85042069D01*
X162903119Y-85041162D01*
X162903116Y-85041161D01*
X162693373Y-85003800D01*
X162693367Y-85003799D01*
X162688284Y-85002894D01*
X162614452Y-85001992D01*
X162470081Y-85000228D01*
X162470079Y-85000228D01*
X162464911Y-85000165D01*
X162244091Y-85033955D01*
X162031756Y-85103357D01*
X161833607Y-85206507D01*
X161829474Y-85209610D01*
X161829471Y-85209612D01*
X161659100Y-85337530D01*
X161654965Y-85340635D01*
X161651393Y-85344373D01*
X161543729Y-85457037D01*
X161500629Y-85502138D01*
X161393201Y-85659621D01*
X161338293Y-85704621D01*
X161267768Y-85712792D01*
X161204021Y-85681538D01*
X161183324Y-85657054D01*
X161102822Y-85532617D01*
X161102820Y-85532614D01*
X161100014Y-85528277D01*
X160949670Y-85363051D01*
X160945619Y-85359852D01*
X160945615Y-85359848D01*
X160778414Y-85227800D01*
X160778410Y-85227798D01*
X160774359Y-85224598D01*
X160578789Y-85116638D01*
X160573920Y-85114914D01*
X160573916Y-85114912D01*
X160373087Y-85043795D01*
X160373083Y-85043794D01*
X160368212Y-85042069D01*
X160363119Y-85041162D01*
X160363116Y-85041161D01*
X160153373Y-85003800D01*
X160153367Y-85003799D01*
X160148284Y-85002894D01*
X160074452Y-85001992D01*
X159930081Y-85000228D01*
X159930079Y-85000228D01*
X159924911Y-85000165D01*
X159704091Y-85033955D01*
X159491756Y-85103357D01*
X159293607Y-85206507D01*
X159289474Y-85209610D01*
X159289471Y-85209612D01*
X159119100Y-85337530D01*
X159114965Y-85340635D01*
X159111393Y-85344373D01*
X159003729Y-85457037D01*
X158960629Y-85502138D01*
X158853201Y-85659621D01*
X158798293Y-85704621D01*
X158727768Y-85712792D01*
X158664021Y-85681538D01*
X158643324Y-85657054D01*
X158562822Y-85532617D01*
X158562820Y-85532614D01*
X158560014Y-85528277D01*
X158409670Y-85363051D01*
X158405619Y-85359852D01*
X158405615Y-85359848D01*
X158238414Y-85227800D01*
X158238410Y-85227798D01*
X158234359Y-85224598D01*
X158038789Y-85116638D01*
X158033920Y-85114914D01*
X158033916Y-85114912D01*
X157833087Y-85043795D01*
X157833083Y-85043794D01*
X157828212Y-85042069D01*
X157823119Y-85041162D01*
X157823116Y-85041161D01*
X157613373Y-85003800D01*
X157613367Y-85003799D01*
X157608284Y-85002894D01*
X157534452Y-85001992D01*
X157390081Y-85000228D01*
X157390079Y-85000228D01*
X157384911Y-85000165D01*
X157164091Y-85033955D01*
X156951756Y-85103357D01*
X156753607Y-85206507D01*
X156749474Y-85209610D01*
X156749471Y-85209612D01*
X156579100Y-85337530D01*
X156574965Y-85340635D01*
X156571393Y-85344373D01*
X156463729Y-85457037D01*
X156420629Y-85502138D01*
X156313201Y-85659621D01*
X156258293Y-85704621D01*
X156187768Y-85712792D01*
X156124021Y-85681538D01*
X156103324Y-85657054D01*
X156022822Y-85532617D01*
X156022820Y-85532614D01*
X156020014Y-85528277D01*
X155869670Y-85363051D01*
X155865619Y-85359852D01*
X155865615Y-85359848D01*
X155698414Y-85227800D01*
X155698410Y-85227798D01*
X155694359Y-85224598D01*
X155498789Y-85116638D01*
X155493920Y-85114914D01*
X155493916Y-85114912D01*
X155293087Y-85043795D01*
X155293083Y-85043794D01*
X155288212Y-85042069D01*
X155283119Y-85041162D01*
X155283116Y-85041161D01*
X155073373Y-85003800D01*
X155073367Y-85003799D01*
X155068284Y-85002894D01*
X154994452Y-85001992D01*
X154850081Y-85000228D01*
X154850079Y-85000228D01*
X154844911Y-85000165D01*
X154624091Y-85033955D01*
X154411756Y-85103357D01*
X154213607Y-85206507D01*
X154209474Y-85209610D01*
X154209471Y-85209612D01*
X154039100Y-85337530D01*
X154034965Y-85340635D01*
X154031393Y-85344373D01*
X153923729Y-85457037D01*
X153880629Y-85502138D01*
X153773201Y-85659621D01*
X153718293Y-85704621D01*
X153647768Y-85712792D01*
X153584021Y-85681538D01*
X153563324Y-85657054D01*
X153482822Y-85532617D01*
X153482820Y-85532614D01*
X153480014Y-85528277D01*
X153329670Y-85363051D01*
X153325619Y-85359852D01*
X153325615Y-85359848D01*
X153158414Y-85227800D01*
X153158410Y-85227798D01*
X153154359Y-85224598D01*
X152958789Y-85116638D01*
X152953920Y-85114914D01*
X152953916Y-85114912D01*
X152753087Y-85043795D01*
X152753083Y-85043794D01*
X152748212Y-85042069D01*
X152743119Y-85041162D01*
X152743116Y-85041161D01*
X152533373Y-85003800D01*
X152533367Y-85003799D01*
X152528284Y-85002894D01*
X152454452Y-85001992D01*
X152310081Y-85000228D01*
X152310079Y-85000228D01*
X152304911Y-85000165D01*
X152084091Y-85033955D01*
X151871756Y-85103357D01*
X151673607Y-85206507D01*
X151669474Y-85209610D01*
X151669471Y-85209612D01*
X151499100Y-85337530D01*
X151494965Y-85340635D01*
X151438537Y-85399684D01*
X151414283Y-85425064D01*
X151352759Y-85460494D01*
X151281846Y-85457037D01*
X151224060Y-85415791D01*
X151205207Y-85382243D01*
X151163767Y-85271703D01*
X151160615Y-85263295D01*
X151073261Y-85146739D01*
X150956705Y-85059385D01*
X150820316Y-85008255D01*
X150758134Y-85001500D01*
X148961866Y-85001500D01*
X148899684Y-85008255D01*
X148763295Y-85059385D01*
X148646739Y-85146739D01*
X148559385Y-85263295D01*
X148508255Y-85399684D01*
X148501500Y-85461866D01*
X148501500Y-87258134D01*
X148508255Y-87320316D01*
X148559385Y-87456705D01*
X148564770Y-87463890D01*
X148564771Y-87463892D01*
X148633004Y-87554935D01*
X148657852Y-87621442D01*
X148642799Y-87690824D01*
X148592625Y-87741054D01*
X148532178Y-87756500D01*
X141232817Y-87756500D01*
X141164696Y-87736498D01*
X141143722Y-87719595D01*
X140880405Y-87456278D01*
X140846379Y-87393966D01*
X140843500Y-87367183D01*
X140843500Y-84090003D01*
X148573579Y-84090003D01*
X148574363Y-84099977D01*
X148576662Y-84112564D01*
X148617981Y-84254783D01*
X148624230Y-84269222D01*
X148698854Y-84395405D01*
X148708501Y-84407841D01*
X148812159Y-84511499D01*
X148824595Y-84521146D01*
X148950778Y-84595770D01*
X148965217Y-84602019D01*
X149078605Y-84634961D01*
X149092705Y-84634921D01*
X149096000Y-84627651D01*
X149096000Y-84092115D01*
X149091525Y-84076876D01*
X149090135Y-84075671D01*
X149082452Y-84074000D01*
X148590434Y-84074000D01*
X148575639Y-84078344D01*
X148573579Y-84090003D01*
X140843500Y-84090003D01*
X140843500Y-70847943D01*
X148573740Y-70847943D01*
X148576910Y-70863030D01*
X148588374Y-70866000D01*
X149077885Y-70866000D01*
X149093124Y-70861525D01*
X149094329Y-70860135D01*
X149096000Y-70852452D01*
X149096000Y-70318100D01*
X149092027Y-70304569D01*
X149084129Y-70303434D01*
X148965217Y-70337981D01*
X148950778Y-70344230D01*
X148824595Y-70418854D01*
X148812159Y-70428501D01*
X148708501Y-70532159D01*
X148698854Y-70544595D01*
X148624230Y-70670778D01*
X148617981Y-70685217D01*
X148576662Y-70827436D01*
X148574363Y-70840023D01*
X148573740Y-70847943D01*
X140843500Y-70847943D01*
X140843500Y-69907822D01*
X140863502Y-69839701D01*
X140917158Y-69793208D01*
X140987432Y-69783104D01*
X141045065Y-69806996D01*
X141136108Y-69875229D01*
X141143295Y-69880615D01*
X141279684Y-69931745D01*
X141341866Y-69938500D01*
X143138134Y-69938500D01*
X143200316Y-69931745D01*
X143336705Y-69880615D01*
X143453261Y-69793261D01*
X143540615Y-69676705D01*
X143562945Y-69617139D01*
X143584798Y-69558848D01*
X143627440Y-69502084D01*
X143694001Y-69477384D01*
X143763350Y-69492592D01*
X143798017Y-69520580D01*
X143823218Y-69549673D01*
X143830580Y-69556883D01*
X143994434Y-69692916D01*
X144002881Y-69698831D01*
X144186756Y-69806279D01*
X144196042Y-69810729D01*
X144395001Y-69886703D01*
X144404899Y-69889579D01*
X144508250Y-69910606D01*
X144522299Y-69909410D01*
X144526000Y-69899065D01*
X144526000Y-69898517D01*
X145034000Y-69898517D01*
X145038064Y-69912359D01*
X145051478Y-69914393D01*
X145058184Y-69913534D01*
X145068262Y-69911392D01*
X145272255Y-69850191D01*
X145281842Y-69846433D01*
X145473095Y-69752739D01*
X145481945Y-69747464D01*
X145655328Y-69623792D01*
X145663200Y-69617139D01*
X145814052Y-69466812D01*
X145820730Y-69458965D01*
X145945003Y-69286020D01*
X145950313Y-69277183D01*
X146044670Y-69086267D01*
X146048469Y-69076672D01*
X146110377Y-68872910D01*
X146112555Y-68862837D01*
X146113986Y-68851962D01*
X146111775Y-68837778D01*
X146098617Y-68834000D01*
X145052115Y-68834000D01*
X145036876Y-68838475D01*
X145035671Y-68839865D01*
X145034000Y-68847548D01*
X145034000Y-69898517D01*
X144526000Y-69898517D01*
X144526000Y-68452000D01*
X144546002Y-68383879D01*
X144599658Y-68337386D01*
X144652000Y-68326000D01*
X146098344Y-68326000D01*
X146111875Y-68322027D01*
X146113180Y-68312947D01*
X146071214Y-68145875D01*
X146067894Y-68136124D01*
X145982972Y-67940814D01*
X145978105Y-67931739D01*
X145862426Y-67752926D01*
X145856136Y-67744757D01*
X145712806Y-67587240D01*
X145705273Y-67580215D01*
X145538139Y-67448222D01*
X145529561Y-67442523D01*
X145488415Y-67419809D01*
X145438445Y-67369376D01*
X145423673Y-67299933D01*
X145448789Y-67233528D01*
X145505820Y-67191243D01*
X145549309Y-67183500D01*
X148532178Y-67183500D01*
X148600299Y-67203502D01*
G37*
%TD.AperFunction*%
%TD*%
M02*
