%TF.GenerationSoftware,KiCad,Pcbnew,(6.0.9)*%
%TF.CreationDate,2024-05-18T22:59:34+02:00*%
%TF.ProjectId,Breadboard-byte-leds,42726561-6462-46f6-9172-642d62797465,rev?*%
%TF.SameCoordinates,Original*%
%TF.FileFunction,Soldermask,Bot*%
%TF.FilePolarity,Negative*%
%FSLAX46Y46*%
G04 Gerber Fmt 4.6, Leading zero omitted, Abs format (unit mm)*
G04 Created by KiCad (PCBNEW (6.0.9)) date 2024-05-18 22:59:34*
%MOMM*%
%LPD*%
G01*
G04 APERTURE LIST*
G04 Aperture macros list*
%AMRoundRect*
0 Rectangle with rounded corners*
0 $1 Rounding radius*
0 $2 $3 $4 $5 $6 $7 $8 $9 X,Y pos of 4 corners*
0 Add a 4 corners polygon primitive as box body*
4,1,4,$2,$3,$4,$5,$6,$7,$8,$9,$2,$3,0*
0 Add four circle primitives for the rounded corners*
1,1,$1+$1,$2,$3*
1,1,$1+$1,$4,$5*
1,1,$1+$1,$6,$7*
1,1,$1+$1,$8,$9*
0 Add four rect primitives between the rounded corners*
20,1,$1+$1,$2,$3,$4,$5,0*
20,1,$1+$1,$4,$5,$6,$7,0*
20,1,$1+$1,$6,$7,$8,$9,0*
20,1,$1+$1,$8,$9,$2,$3,0*%
G04 Aperture macros list end*
%ADD10R,1.700000X1.700000*%
%ADD11O,1.700000X1.700000*%
%ADD12RoundRect,0.135000X-0.135000X-0.185000X0.135000X-0.185000X0.135000X0.185000X-0.135000X0.185000X0*%
%ADD13RoundRect,0.135000X0.135000X0.185000X-0.135000X0.185000X-0.135000X-0.185000X0.135000X-0.185000X0*%
%ADD14RoundRect,0.150000X0.150000X-0.587500X0.150000X0.587500X-0.150000X0.587500X-0.150000X-0.587500X0*%
%ADD15RoundRect,0.150000X-0.150000X0.587500X-0.150000X-0.587500X0.150000X-0.587500X0.150000X0.587500X0*%
G04 APERTURE END LIST*
D10*
%TO.C,J2*%
X149860000Y-86360000D03*
D11*
X152400000Y-86360000D03*
X154940000Y-86360000D03*
X157480000Y-86360000D03*
X160020000Y-86360000D03*
X162560000Y-86360000D03*
X165100000Y-86360000D03*
X167640000Y-86360000D03*
X170180000Y-86360000D03*
%TD*%
D12*
%TO.C,R15*%
X159192500Y-71120000D03*
X160212500Y-71120000D03*
%TD*%
D13*
%TO.C,R30*%
X149735000Y-83756500D03*
X148715000Y-83756500D03*
%TD*%
D14*
%TO.C,Q14*%
X157160000Y-82217500D03*
X155260000Y-82217500D03*
X156210000Y-80342500D03*
%TD*%
D12*
%TO.C,R13*%
X152207500Y-71120000D03*
X153227500Y-71120000D03*
%TD*%
D15*
%TO.C,Q2*%
X144782500Y-72722500D03*
X146682500Y-72722500D03*
X145732500Y-74597500D03*
%TD*%
D12*
%TO.C,R10*%
X141730000Y-71120000D03*
X142750000Y-71120000D03*
%TD*%
D14*
%TO.C,Q12*%
X150175000Y-82217500D03*
X148275000Y-82217500D03*
X149225000Y-80342500D03*
%TD*%
D12*
%TO.C,R18*%
X169670000Y-71120000D03*
X170690000Y-71120000D03*
%TD*%
D13*
%TO.C,R34*%
X163705000Y-83756500D03*
X162685000Y-83756500D03*
%TD*%
D14*
%TO.C,Q16*%
X164145000Y-82217500D03*
X162245000Y-82217500D03*
X163195000Y-80342500D03*
%TD*%
D12*
%TO.C,R16*%
X162685000Y-71120000D03*
X163705000Y-71120000D03*
%TD*%
D15*
%TO.C,Q9*%
X169230000Y-72722500D03*
X171130000Y-72722500D03*
X170180000Y-74597500D03*
%TD*%
D12*
%TO.C,R14*%
X155700000Y-71120000D03*
X156720000Y-71120000D03*
%TD*%
D15*
%TO.C,Q5*%
X155260000Y-72722500D03*
X157160000Y-72722500D03*
X156210000Y-74597500D03*
%TD*%
D13*
%TO.C,R32*%
X156720000Y-83756500D03*
X155700000Y-83756500D03*
%TD*%
D14*
%TO.C,Q17*%
X167637500Y-82217500D03*
X165737500Y-82217500D03*
X166687500Y-80342500D03*
%TD*%
%TO.C,Q15*%
X160652500Y-82217500D03*
X158752500Y-82217500D03*
X159702500Y-80342500D03*
%TD*%
%TO.C,Q18*%
X171130000Y-82217500D03*
X169230000Y-82217500D03*
X170180000Y-80342500D03*
%TD*%
D15*
%TO.C,Q4*%
X151767500Y-72722500D03*
X153667500Y-72722500D03*
X152717500Y-74597500D03*
%TD*%
%TO.C,Q6*%
X158752500Y-72722500D03*
X160652500Y-72722500D03*
X159702500Y-74597500D03*
%TD*%
%TO.C,Q8*%
X165737500Y-72722500D03*
X167637500Y-72722500D03*
X166687500Y-74597500D03*
%TD*%
D13*
%TO.C,R28*%
X142750000Y-83756500D03*
X141730000Y-83756500D03*
%TD*%
D14*
%TO.C,Q11*%
X146682500Y-82217500D03*
X144782500Y-82217500D03*
X145732500Y-80342500D03*
%TD*%
D13*
%TO.C,R35*%
X167197500Y-83756500D03*
X166177500Y-83756500D03*
%TD*%
D14*
%TO.C,Q13*%
X153667500Y-82217500D03*
X151767500Y-82217500D03*
X152717500Y-80342500D03*
%TD*%
D15*
%TO.C,Q7*%
X162245000Y-72722500D03*
X164145000Y-72722500D03*
X163195000Y-74597500D03*
%TD*%
D13*
%TO.C,R36*%
X170690000Y-83756500D03*
X169670000Y-83756500D03*
%TD*%
D12*
%TO.C,R11*%
X145222500Y-71120000D03*
X146242500Y-71120000D03*
%TD*%
D13*
%TO.C,R31*%
X153227500Y-83756500D03*
X152207500Y-83756500D03*
%TD*%
D15*
%TO.C,Q3*%
X148275000Y-72722500D03*
X150175000Y-72722500D03*
X149225000Y-74597500D03*
%TD*%
D10*
%TO.C,J3*%
X142240000Y-68580000D03*
D11*
X144780000Y-68580000D03*
%TD*%
D14*
%TO.C,Q10*%
X143190000Y-82217500D03*
X141290000Y-82217500D03*
X142240000Y-80342500D03*
%TD*%
D13*
%TO.C,R33*%
X160212500Y-83756500D03*
X159192500Y-83756500D03*
%TD*%
D10*
%TO.C,J1*%
X149860000Y-68580000D03*
D11*
X152400000Y-68580000D03*
X154940000Y-68580000D03*
X157480000Y-68580000D03*
X160020000Y-68580000D03*
X162560000Y-68580000D03*
X165100000Y-68580000D03*
X167640000Y-68580000D03*
X170180000Y-68580000D03*
%TD*%
D12*
%TO.C,R12*%
X148715000Y-71120000D03*
X149735000Y-71120000D03*
%TD*%
D13*
%TO.C,R29*%
X146242500Y-83756500D03*
X145222500Y-83756500D03*
%TD*%
D12*
%TO.C,R17*%
X166177500Y-71120000D03*
X167197500Y-71120000D03*
%TD*%
D15*
%TO.C,Q1*%
X141290000Y-72722500D03*
X143190000Y-72722500D03*
X142240000Y-74597500D03*
%TD*%
M02*
